<svg xmlns="http://www.w3.org/2000/svg" width="30.356" height="30.356" viewBox="0 0 30.356 30.356"><path d="M843.144,204.094a15.178,15.178,0,1,0,15.178,15.178A15.2,15.2,0,0,0,843.144,204.094Zm-3.8,22a.253.253,0,0,1-.254.253H836.17a.253.253,0,0,1-.254-.253v-9.818a.254.254,0,0,1,.254-.253h2.925a.254.254,0,0,1,.254.253Zm-1.819-11.384a1.837,1.837,0,1,1,1.838-1.838A1.838,1.838,0,0,1,837.53,214.711Zm14.2,11.384a.253.253,0,0,1-.253.253h-2.926a.253.253,0,0,1-.253-.253v-5.27c0-1.387-.5-2.334-1.739-2.334a1.879,1.879,0,0,0-1.761,1.255,2.353,2.353,0,0,0-.113.837v5.513a.254.254,0,0,1-.254.253H841.5a.253.253,0,0,1-.253-.253c.007-1.4.036-8.214.006-9.814a.252.252,0,0,1,.253-.257h2.919a.254.254,0,0,1,.253.253v1.21a3.409,3.409,0,0,1,3.094-1.706c2.258,0,3.951,1.476,3.951,4.646Z" transform="translate(-827.966 -204.094)" fill="#45cdfc"/><path d="M857.951,228.169v-.033c-.007.011-.017.023-.023.033Z" transform="translate(-841.237 -214.743)" fill="#45cdfc"/></svg>