<svg xmlns="http://www.w3.org/2000/svg" width="138.167" height="111.359" viewBox="0 0 138.167 111.359">
  <g id="Grupo_242" data-name="Grupo 242" transform="translate(-24.005 -46.848)">
    <path id="Trazado_169" data-name="Trazado 169" d="M129.431,122.777a54.126,54.126,0,0,0-18.663-60.061L107.184,64.2a51.092,51.092,0,0,1,6.544,5.455,52.214,52.214,0,0,1-7.848,6.132l.891,2.154a54.278,54.278,0,0,0,8.554-6.639,50.523,50.523,0,0,1,13.5,33.168H117.763l1.093,2.634h9.971a50.612,50.612,0,0,1-2.9,15.674H112.914l-4.74-11.445,8.358-3.459L100.1,68.205,80.643,76.262,85.257,87.4l15.986-6.621,10.362,25.01L103.27,109.3l5.584,13.476H87.289l-4.306-10.393,8.954-3.71-15.8-38.137L29.93,89.672q.518-1.551,1.134-3.061l78.06-32.324-1.435-3.466L57.3,71.686,56.3,69.259,49.13,72.226l1.006,2.429-16.676,6.9A50.831,50.831,0,0,1,40.833,71.3a54.15,54.15,0,0,0,4.5,3.831l2.51-1a51.33,51.33,0,0,1-5.409-4.482A50.6,50.6,0,0,1,73.313,55.257c-4.6,2.9-8.7,7.47-12.028,13.262l2.559-1.059c3.47-5.429,7.681-9.535,12.347-11.842v6.728l3.779-1.564v-5.2a25.177,25.177,0,0,1,4.892,3.178l1.749-.722a29.123,29.123,0,0,0-3.677-2.77,48.969,48.969,0,0,1,7.35,1.246l4.892-2.027A54.093,54.093,0,0,0,28.13,126.527H162.172v-3.75ZM27.318,105.788c0-.341,0-.672.008-1.009l1.59-.657a43.913,43.913,0,0,0,1.111,7.951,6.159,6.159,0,0,1,.165,1.435,6.226,6.226,0,0,1-1.5,4.066A50.927,50.927,0,0,1,27.318,105.788Zm5.025,16.989H30.231c-.205-.582-.418-1.215-.6-1.808a9.4,9.4,0,0,0,3.443-9.624A41.028,41.028,0,0,1,32,102.806l3.125-1.256c0,.155,0,.308,0,.464a37.584,37.584,0,0,0,1,8.622,12.525,12.525,0,0,1-3.774,12.142Zm7.917,0H36.535a15.666,15.666,0,0,0,2.63-12.861,34.516,34.516,0,0,1-.915-7.9q0-.891.046-1.772L41.533,98.9q-.153,1.539-.153,3.118a31.624,31.624,0,0,0,.83,7.184,18.8,18.8,0,0,1-1.949,13.579Zm6.932,0H43.784a21.987,21.987,0,0,0,1.47-14.3,28.475,28.475,0,0,1-.746-6.466,28.163,28.163,0,0,1,.357-4.5l3.481-1.439A25.2,25.2,0,0,0,48.3,107.76a25.166,25.166,0,0,1-1.108,15.017Zm7.2-16.454a30.968,30.968,0,0,1,.83,7.186,31.278,31.278,0,0,1-1.4,9.269h-3.3a28.3,28.3,0,0,0,.815-15.734,22.026,22.026,0,0,1,.731-12.514l4.246-1.757a18.811,18.811,0,0,0-1.931,13.551Zm2.7,16.454a34.652,34.652,0,0,0,.346-17.187l0,.015a15.66,15.66,0,0,1,4.871-15.311l15.326-6.347,9.38,22.643-8.954,3.71,5.168,12.478Z" transform="translate(0 -1.641)" fill="#6e6e6e"/>
    <path id="Trazado_170" data-name="Trazado 170" d="M93.492,205.336l7.731,0c-3.482,5.425-7.706,9.524-12.385,11.816l-.028-11.816,2.807,0v-3.73H88.837v-2.779H85.059v2.779h-2.78v3.73l2.78,0,0,11.775c-4.646-2.3-8.842-6.382-12.3-11.775l7.65,0v-3.73l-34.935.015a54.086,54.086,0,0,0,79.552,3.713h23.949v-3.753l-55.476.025Zm-39.743,0H70.821a36.69,36.69,0,0,0,11.36,12.135A50.56,50.56,0,0,1,53.749,205.334Zm66.4,0A50.548,50.548,0,0,1,91.8,217.461a36.684,36.684,0,0,0,11.348-12.127Z" transform="translate(-8.868 -62.794)" fill="#6e6e6e"/>
    <rect id="Rectángulo_61" data-name="Rectángulo 61" width="57.752" height="3.751" transform="translate(78.291 68.943) rotate(-22.494)" fill="#6e6e6e"/>
    <path id="Trazado_171" data-name="Trazado 171" d="M146.946,119.571l.513-3.086a14.252,14.252,0,0,0-2.309-.188,14.056,14.056,0,0,0-11.334,5.727l2.519,1.854a10.975,10.975,0,0,1,4.755-3.677,2.346,2.346,0,1,0,2.77-.7,11.072,11.072,0,0,1,3.086.07Z" transform="translate(-45.371 -28.695)" fill="#6e6e6e"/>
    <path id="Trazado_172" data-name="Trazado 172" d="M89.477,127.461,92,129.316a10.982,10.982,0,0,1,4.756-3.678,2.345,2.345,0,1,0,2.769-.7,11.239,11.239,0,0,1,3.086.071l.513-3.084a14.093,14.093,0,0,0-13.645,5.537Z" transform="translate(-27.052 -30.941)" fill="#6e6e6e"/>
    <path id="Trazado_173" data-name="Trazado 173" d="M45.709,192.449a.261.261,0,0,0,.12-.146l.165-.38a.363.363,0,0,1,.076-.083.259.259,0,0,1,.178-.057h2.167a.685.685,0,0,1,.241.025.279.279,0,0,1,.1.127l.1.241a.474.474,0,0,0,.216.26,1.1,1.1,0,0,0,.418.058h4.423a1.224,1.224,0,0,0,.323-.032.138.138,0,0,0,.108-.146.6.6,0,0,0-.05-.2q-.051-.126-.228-.532l-3.435-8.036q-.063-.152-.12-.26a.632.632,0,0,0-.127-.171.464.464,0,0,0-.165-.1.815.815,0,0,0-.247-.032H48.339a.562.562,0,0,0-.45.146,1.3,1.3,0,0,0-.209.387l-3,8.087q-.063.2-.158.437a1.152,1.152,0,0,0-.1.3.131.131,0,0,0,.051.12.554.554,0,0,0,.241.032H45.4A.739.739,0,0,0,45.709,192.449Zm.906-2.212.545-1.382a.288.288,0,0,1,.05-.1c.025-.033.046-.05.063-.05s.046.019.063.057.034.074.051.108l.6,1.394a2.085,2.085,0,0,1,.114.329c0,.068-.081.1-.241.1H46.805a.732.732,0,0,1-.2-.025c-.059-.016-.089-.042-.089-.076A1.149,1.149,0,0,1,46.615,190.238Z" transform="translate(-8.436 -56.25)" fill="#6e6e6e"/>
    <path id="Trazado_174" data-name="Trazado 174" d="M78.78,192.18a.336.336,0,0,0,.089.194.38.38,0,0,0,.2.094,1.98,1.98,0,0,0,.349.025h3.752a1.976,1.976,0,0,0,.349-.025.385.385,0,0,0,.2-.1.337.337,0,0,0,.088-.2,2.361,2.361,0,0,0,.019-.342v-8.189a2.4,2.4,0,0,0-.019-.336.348.348,0,0,0-.088-.2.389.389,0,0,0-.2-.1,1.974,1.974,0,0,0-.349-.025H80.4a1.186,1.186,0,0,0-.2.013.33.33,0,0,0-.127.051.351.351,0,0,0-.1.107c-.03.046-.066.108-.108.184l-1.47,2.446a1.8,1.8,0,0,1-.178.26c-.042.046-.076.069-.1.069a.174.174,0,0,1-.114-.063.912.912,0,0,1-.127-.165l-1.787-2.547a.765.765,0,0,0-.342-.266,1.093,1.093,0,0,0-.418-.089H72.6a.719.719,0,0,0-.469.114.779.779,0,0,0-.127.545v8.278a3.09,3.09,0,0,0,.013.329.3.3,0,0,0,.063.171.216.216,0,0,0,.158.064c.072,0,.171.006.3.006h.456c.119,0,.214,0,.285-.006a.247.247,0,0,0,.165-.063.278.278,0,0,0,.07-.17,3.221,3.221,0,0,0,.012-.326v-3.441a.337.337,0,0,1,.038-.152c.025-.05.051-.076.076-.076a.1.1,0,0,1,.1.057,1.335,1.335,0,0,0,.1.145l1.914,2.84a3.3,3.3,0,0,0,.292.4.218.218,0,0,0,.152.075.2.2,0,0,0,.165-.075,3.844,3.844,0,0,0,.254-.4l1.851-3a1.45,1.45,0,0,0,.114-.2.109.109,0,0,1,.114-.063q.076,0,.076.292v3.518A2.425,2.425,0,0,0,78.78,192.18Z" transform="translate(-19.833 -56.25)" fill="#6e6e6e"/>
    <path id="Trazado_175" data-name="Trazado 175" d="M103.323,187.34a2.4,2.4,0,0,0-.019.342v5.856a2.379,2.379,0,0,0,.019.342.331.331,0,0,0,.083.191.325.325,0,0,0,.19.082,2.364,2.364,0,0,0,.342.019h3.3a2.37,2.37,0,0,0,.342-.019.281.281,0,0,0,.272-.273,2.364,2.364,0,0,0,.019-.342v-5.856a2.382,2.382,0,0,0-.019-.342.328.328,0,0,0-.082-.19.332.332,0,0,0-.19-.082,2.462,2.462,0,0,0-.342-.019h-3.3a2.456,2.456,0,0,0-.342.019.282.282,0,0,0-.273.272Z" transform="translate(-32.765 -57.927)" fill="#6e6e6e"/>
    <path id="Trazado_176" data-name="Trazado 176" d="M104.049,185.11a2.477,2.477,0,0,0,.342.019h2.776a2.483,2.483,0,0,0,.342-.019.329.329,0,0,0,.19-.083.325.325,0,0,0,.082-.19,2.382,2.382,0,0,0,.019-.343v-.139a2.379,2.379,0,0,0-.019-.342.329.329,0,0,0-.082-.19.333.333,0,0,0-.19-.083,2.4,2.4,0,0,0-.342-.019h-2.776a2.391,2.391,0,0,0-.342.019.282.282,0,0,0-.272.273,2.38,2.38,0,0,0-.019.342v.139a2.383,2.383,0,0,0,.019.343.282.282,0,0,0,.272.272Z" transform="translate(-32.952 -56.553)" fill="#6e6e6e"/>
    <path id="Trazado_177" data-name="Trazado 177" d="M127.713,185.4a2.335,2.335,0,0,1,.254-.734,1.335,1.335,0,0,1,.462-.494,1.311,1.311,0,0,1,.7-.177.811.811,0,0,1,.361.05.389.389,0,0,0,.209.051.21.21,0,0,0,.19-.1.461.461,0,0,0,.063-.251v-.314a.672.672,0,0,0-.057-.27.546.546,0,0,0-.3-.239,2.741,2.741,0,0,0-.716-.17,10.792,10.792,0,0,0-1.324-.062,6.085,6.085,0,0,0-2.117.342,4.254,4.254,0,0,0-1.559.975,4.132,4.132,0,0,0-.964,1.538,5.9,5.9,0,0,0-.33,2.032,5.959,5.959,0,0,0,.355,2.133,4.137,4.137,0,0,0,1.027,1.563,4.442,4.442,0,0,0,1.635.962,6.723,6.723,0,0,0,2.181.33q.811,0,1.293-.045a3.443,3.443,0,0,0,.729-.129.586.586,0,0,0,.323-.2.527.527,0,0,0,.076-.288v-.345c0-.188-.033-.3-.1-.339a.594.594,0,0,0-.292-.058h-.38a2.347,2.347,0,0,1-.874-.139,1.15,1.15,0,0,1-.551-.475,2.334,2.334,0,0,1-.292-.9,10.219,10.219,0,0,1-.083-1.43v-1.911A4.974,4.974,0,0,1,127.713,185.4Z" transform="translate(-40.734 -56.125)" fill="#6e6e6e"/>
    <path id="Trazado_178" data-name="Trazado 178" d="M152.851,183.289a.345.345,0,0,0-.089-.2.382.382,0,0,0-.2-.1,1.921,1.921,0,0,0-.349-.025H148.46a1.928,1.928,0,0,0-.349.025.384.384,0,0,0-.2.1.345.345,0,0,0-.088.2,2.5,2.5,0,0,0-.019.336v5.92a6.239,6.239,0,0,0,.146,1.459,1.7,1.7,0,0,0,.621.968,3.175,3.175,0,0,0,1.375.538,13.9,13.9,0,0,0,2.409.166,8.847,8.847,0,0,0,1.888-.166,2.565,2.565,0,0,0,1.153-.538,1.914,1.914,0,0,0,.577-.968,5.8,5.8,0,0,0,.158-1.459v-6.211a.461.461,0,0,0-.069-.273q-.07-.1-.323-.1h-.773c-.161,0-.259.03-.3.089a.661.661,0,0,0-.058.33V189.9a3.573,3.573,0,0,1-.038.539,1.314,1.314,0,0,1-.14.431.742.742,0,0,1-.7.4.827.827,0,0,1-.456-.107.747.747,0,0,1-.261-.3,1.274,1.274,0,0,1-.12-.437,5.14,5.14,0,0,1-.025-.526v-6.274A2.412,2.412,0,0,0,152.851,183.289Z" transform="translate(-51.149 -56.241)" fill="#6e6e6e"/>
    <path id="Trazado_179" data-name="Trazado 179" d="M174.651,191.055c-.067,0-.148,0-.241-.013s-.185-.012-.279-.012a.311.311,0,0,0-.228.076.443.443,0,0,0-.076.3v.495a.5.5,0,0,0,.076.272.7.7,0,0,0,.418.2,6.6,6.6,0,0,0,1.033.127q.69.044,1.92.045a4.879,4.879,0,0,0,2.668-.6,2.088,2.088,0,0,0,.918-1.882,3.255,3.255,0,0,0-.146-.913,8.216,8.216,0,0,0-.374-1.008q-.228-.514-.482-1.02l-.482-.964c-.152-.3-.277-.583-.374-.837a1.836,1.836,0,0,1-.146-.634.548.548,0,0,1,.158-.393.477.477,0,0,1,.349-.165c.119,0,.218,0,.3.012s.138.013.171.013c.144,0,.235-.027.272-.082a.547.547,0,0,0,.058-.3v-.57a.374.374,0,0,0-.07-.215.613.613,0,0,0-.355-.171,5.723,5.723,0,0,0-.849-.114q-.564-.045-1.553-.045a10.312,10.312,0,0,0-1.4.089,3.724,3.724,0,0,0-1.109.317,1.655,1.655,0,0,0-.988,1.623,4.782,4.782,0,0,0,.259,1.471q.26.8.57,1.572t.57,1.438a3.125,3.125,0,0,1,.26,1.059.847.847,0,0,1-.215.576A.8.8,0,0,1,174.651,191.055Z" transform="translate(-61.904 -56.116)" fill="#6e6e6e"/>
  </g>
</svg>
