<svg xmlns="http://www.w3.org/2000/svg" width="132.001" height="122.802" viewBox="0 0 132.001 122.802">
  <g id="Grupo_237" data-name="Grupo 237" transform="translate(-1223.189 -13.792)">
    <path id="Trazado_141" data-name="Trazado 141" d="M1352.714,45.493q-.073-.155-.148-.309l-.006-.013a35.263,35.263,0,0,0-5.274-7.665c-12.167-13.947-30.293-22.131-54.66-23.714h-6.871c-24.213,1.508-42.442,9.79-54.609,23.662q-.227.26-.451.52-.629.725-1.238,1.489l-.049.063c-.166.208-.331.417-.493.63q-.294.385-.577.777l-.088.124q-.284.4-.556.8l-.1.153q-.246.372-.482.752c-.052.083-.1.165-.155.249-.062.1-.121.207-.182.311-.331.558-.651,1.128-.949,1.72a28.356,28.356,0,0,0-2.635,10.384v3.823a58.106,58.106,0,0,0,5.64,20.292c.958,2.078,1.984,4.088,3.039,6.06,1.3,2.422,2.677,4.776,4.12,7.073a166.779,166.779,0,0,0,10.088,14.313,203.548,203.548,0,0,0,16.429,18.909c5.941,5.941,13.969,9.788,24.643,10.694h3.978a40.023,40.023,0,0,0,14.1-3.565,33.741,33.741,0,0,0,10.591-7.078,201.357,201.357,0,0,0,16.429-18.909,156.321,156.321,0,0,0,14.156-21.182c4.172-7.671,7.841-15.986,8.783-26.607V55.43A25.634,25.634,0,0,0,1352.714,45.493Zm-56.336,78.117-.347-6.128,2.126-.12.329,5.818a15.694,15.694,0,0,1-.013,2.828,3.027,3.027,0,0,1-1.745,2.4,5.148,5.148,0,0,1-2.007.451,5.585,5.585,0,0,1-2.308-.237,3.292,3.292,0,0,1-1.286-.883,3.115,3.115,0,0,1-.666-1.194,14.164,14.164,0,0,1-.368-2.8l-.334-5.909,2.126-.12.339,6a13.145,13.145,0,0,0,.184,1.847,1.811,1.811,0,0,0,.712,1.055,2.189,2.189,0,0,0,1.427.332,2.07,2.07,0,0,0,1.343-.467,1.557,1.557,0,0,0,.5-.987A13.151,13.151,0,0,0,1296.378,123.611Zm3.488-6.441,4.144-.772a11.594,11.594,0,0,1,1.856-.234,2.669,2.669,0,0,1,1.166.249,2.8,2.8,0,0,1,.965.763,2.611,2.611,0,0,1,.556,1.217,2.682,2.682,0,0,1-.13,1.479,2.515,2.515,0,0,1-.885,1.158,2.679,2.679,0,0,1,2.457,2.267,3.44,3.44,0,0,1-.059,1.508,2.781,2.781,0,0,1-2,2.07q-.512.157-2.511.545l-3.529.658Zm-10.8-4.98h-1.3a60.612,60.612,0,0,1-18.493-3.031c-1.349-.482-2.609-.976-3.889-1.482a45.967,45.967,0,0,1-20.775-16.726A32.928,32.928,0,0,1,1239.165,75v-4.92h.089a33.9,33.9,0,0,1,9.962-21.308c9.818-9.875,22.119-14.934,37.608-15.464h3.167c12.447.406,23.205,3.932,31.993,10.48,9.646,7.188,14.628,15.673,15.68,26.7l0,.043V75c-.815,10.769-6.239,17.67-10.248,21.924a41.835,41.835,0,0,1-8.93,7.156,47.8,47.8,0,0,1-7.094,3.65A60.7,60.7,0,0,1,1289.064,112.189Zm-.842,14.847-.1,1.866-7.414-.413.612-10.987,2.126.119-.509,9.121Zm-15.922-2.425a2.289,2.289,0,0,0,1.692,1.2,2.071,2.071,0,0,0,1.535-.311,3.352,3.352,0,0,0,1.169-1.611l1.917,1.03a4.908,4.908,0,0,1-2.015,2.39,4.351,4.351,0,0,1-2.911.392,4.429,4.429,0,0,1-3.146-2.076,5.961,5.961,0,0,1-.63-4.3,6.265,6.265,0,0,1,2.072-4.008,4.551,4.551,0,0,1,3.785-.9,4.261,4.261,0,0,1,2.893,1.721,4.438,4.438,0,0,1,.716,2.2l-2.168.163a2.376,2.376,0,0,0-.537-1.475,2.163,2.163,0,0,0-1.336-.738,2.348,2.348,0,0,0-2.026.549,4.5,4.5,0,0,0-1.208,2.7A4.837,4.837,0,0,0,1272.3,124.611Zm2.22-100.748,5.232-.851.3,1.863-5.233.851.49,3.01,5.822-.947.3,1.863-7.927,1.29-1.8-11.058,7.727-1.257.3,1.871-5.623.915Zm-26.728,19.359-1.832,1.326-3.238-11.487,1.826-1.322,9.994,6.6-1.878,1.36-2.239-1.521-3.419,2.475Zm2.423-15.209,3.492-1.728a7.2,7.2,0,0,1,1.9-.7,3.507,3.507,0,0,1,1.884.219,4.968,4.968,0,0,1,1.709,1.18,8.737,8.737,0,0,1,1.484,2.22,7.791,7.791,0,0,1,.767,2.281,5,5,0,0,1-.136,2.276,3.7,3.7,0,0,1-.946,1.466,6.1,6.1,0,0,1-1.586,1.049l-3.6,1.779Zm9.842-4.717,2.2-.695,5.04,7.107-.025-8.686,2.157-.679-.241,11.822-2.171.684Zm29.059-5.075,1.98-.031.174,11.2-2.139.033-4.37-7.239.114,7.305-1.98.031-.175-11.2,2.074-.032,4.438,7.414Zm41.663,18.034-1.041,1.575-4.422-2.923-1.681,2.544,4.921,3.252-1.041,1.575-6.7-4.428,6.177-9.347,6.531,4.317-1.045,1.581-4.753-3.141-1.369,2.072Zm-11.191-3.536a12.762,12.762,0,0,1,.356,2.157l.273,2.523-2.323-1.052-.4-2.857a15.827,15.827,0,0,0-.344-1.964,1.638,1.638,0,0,0-.392-.689,3.326,3.326,0,0,0-.926-.557l-.394-.178-1.929,4.261-1.942-.879,4.62-10.207,4.088,1.85a7.267,7.267,0,0,1,2.116,1.289,2.465,2.465,0,0,1,.676,1.485,3.379,3.379,0,0,1-.308,1.8,3.1,3.1,0,0,1-1.5,1.609,3.282,3.282,0,0,1-2.33.082A5.031,5.031,0,0,1,1319.587,32.719Zm-14.554-3.39a2.174,2.174,0,0,0,1.249.772,2.059,2.059,0,0,0,1.424-.02,1.572,1.572,0,0,0,.789-.787,13.35,13.35,0,0,0,.59-1.811l1.628-5.981,2.057.56-1.546,5.678a16.051,16.051,0,0,1-.915,2.705,3.052,3.052,0,0,1-2.423,1.744,5.127,5.127,0,0,1-2.049-.205,5.542,5.542,0,0,1-2.116-.96,3.3,3.3,0,0,1-.939-1.253,3.161,3.161,0,0,1-.251-1.355,14.411,14.411,0,0,1,.545-2.8l1.57-5.766,2.057.56-1.594,5.855a13.324,13.324,0,0,0-.415,1.828A1.831,1.831,0,0,0,1305.033,29.33Zm-11.491-9.121.233-1.881,8.327,1.03-.233,1.881-3.1-.384-1.142,9.238-2.116-.262,1.142-9.238ZM1336.26,43.5a5.039,5.039,0,0,1,.194,1.466,12.8,12.8,0,0,1-.354,2.158l-.548,2.478-1.864-1.739.536-2.834a15.813,15.813,0,0,0,.3-1.971,1.641,1.641,0,0,0-.151-.778,3.334,3.334,0,0,0-.7-.824l-.316-.295-3.191,3.42-1.559-1.454,7.643-8.193,3.281,3.061a7.256,7.256,0,0,1,1.593,1.9,2.465,2.465,0,0,1,.166,1.623,3.382,3.382,0,0,1-.867,1.606,3.1,3.1,0,0,1-1.932,1.046A3.28,3.28,0,0,1,1336.26,43.5Z" transform="translate(0 0)" fill="#6e6e6e" fill-rule="evenodd"/>
    <path id="Trazado_142" data-name="Trazado 142" d="M1511.228,431.748q.6,0,1.2-.022a11.53,11.53,0,0,0,.089-1.887A12.671,12.671,0,0,0,1511.228,431.748Z" transform="translate(-222.638 -321.581)" fill="#6e6e6e" fill-rule="evenodd"/>
    <path id="Trazado_143" data-name="Trazado 143" d="M1537.33,358.143c-.915,2.039-1.856,4.911-3.1,6.768a10.234,10.234,0,0,0-1.292,2.015l0,.006a.919.919,0,0,1-.145.866c-.048.263-.135.472-.37.523a.564.564,0,0,1-.566-.218,15.365,15.365,0,0,0-1.764-.5,7.364,7.364,0,0,0-1.653,0c-.645.1-.7.577-1.4.569-.839.72-1.075,1.847-1.136,3.306a7.841,7.841,0,0,1,0,1.24c-.047.226-.254.406-.31.62a20.46,20.46,0,0,0-.323,2.888,61.247,61.247,0,0,0,10.2-1.433c.576-2.345,1.054-4.807,1.547-7.246a23.213,23.213,0,0,0,.62-6.871A9.608,9.608,0,0,0,1537.33,358.143Z" transform="translate(-233.494 -266.164)" fill="#6e6e6e" fill-rule="evenodd"/>
    <path id="Trazado_144" data-name="Trazado 144" d="M1469.752,369.3c-1-.712-2.4-.819-3.676-1.326v.186a2.079,2.079,0,0,1-1.6.1,1.326,1.326,0,0,1-.139-.911c-.038,0-.073-.011-.112-.014a4.7,4.7,0,0,1,.056-1.11,17.259,17.259,0,0,0-.994-1.891c-1.139-2.151-2.922-3.835-4.185-5.735a6.476,6.476,0,0,0-.517,1.653,9.427,9.427,0,0,0-.671,2.067,8.02,8.02,0,0,0,.413,2.583c.632,2.222,1.661,4.543,2.325,6.561-.536.256-1.372-.049-1.911.155-.372.141-.369.4-.568.723v3.215q.926.183,1.951.362a53.068,53.068,0,0,0,7.355.733c.225-.459.448-.915.672-1.36a7.914,7.914,0,0,0,1.291-3.1c.014-.226-.069-.45-.052-.672A10.841,10.841,0,0,0,1469.752,369.3Z" transform="translate(-181.421 -266.518)" fill="#6e6e6e" fill-rule="evenodd"/>
    <path id="Trazado_145" data-name="Trazado 145" d="M1444.7,415.713c-.353.022-.632,1.25-.775,1.808-.123.478-.221.935-.31,1.384.668.176,1.378.346,2.137.512-.085-.6-.181-1.184-.277-1.741C1445.4,417.246,1445.194,415.682,1444.7,415.713Z" transform="translate(-170.377 -310.661)" fill="#6e6e6e" fill-rule="evenodd"/>
    <path id="Trazado_146" data-name="Trazado 146" d="M1388.052,217.2a37.478,37.478,0,0,0,4.543-6.039,30.378,30.378,0,0,0,4.568-13.523,30.2,30.2,0,0,0-1.148-4.113c-.687-2.01-1.437-4.439-2.737-5.557a1.719,1.719,0,0,0-2.418.212,9.928,9.928,0,0,0-1.55,2.54c-.049.1-.1.2-.147.306a8.233,8.233,0,0,1-1.482-1.586c.527-.024,1.426.017,2.118,0-.77-1.125-2.15-2.086-3.048-3.255a8.766,8.766,0,0,1,2.118,0,5,5,0,0,0-1.137-1.24c-1.263-1.263-2.5-2.576-3.771-3.771,0-.032-.008-.061-.052-.052-1.627,1.7-3.339,3.308-4.96,5.011a19.356,19.356,0,0,1,2.17.052c-.943,1.175-2.157,2.08-3.1,3.255a15.816,15.816,0,0,1,2.17.052c-.994,1.107-2.149,2.053-3.1,3.2a18.842,18.842,0,0,1,2.221.052c-.324.356-.665.7-1.007,1.035-2.528-1.815-4.684-3.17-5.386-3.087-.581.069-1.147.148-1.7.235a13.636,13.636,0,0,0-3.2-.511c-3-.028-6.472.861-9.573.577-2.118-.193-2.645-1.051-4.282-2.2a29.617,29.617,0,0,0-2.771-1.594v-7.944c1.824-.182,3.552.041,5.631-.1v-2.376c-1.757-.155-3.874.051-5.631-.1-.033-1.568.068-3.271-.052-4.753a25.227,25.227,0,0,0-2.687-.052v4.857h-5.476v2.531c1.808.035,3.754-.069,5.476.052.011,2.046,0,4.109,0,6.171a5.5,5.5,0,0,0-.974-.408,17.558,17.558,0,0,0-5.923-.395c-3.189.158-6.14,1.708-9.034,2.978a17.432,17.432,0,0,0-3.775,1.718c-1.1.874-1.777,2.386-2.826,3.44-1.783,1.791-3.91,1.739-6.125,1.085a13.139,13.139,0,0,1-1.662-2.679c.6-.041,1.622.029,2.409,0-.875-1.925-2.446-3.568-3.467-5.568a6.654,6.654,0,0,1,2.409,0,8.266,8.266,0,0,0-1.293-2.121c-1.436-2.161-2.844-4.407-4.289-6.452,0-.054-.009-.1-.059-.088-1.85,2.9-3.8,5.659-5.641,8.573a14.7,14.7,0,0,1,2.468.088,23.071,23.071,0,0,1-1.3,2.107l-.14-.187c0-.044-.008-.087-.052-.073-1.627,2.4-3.339,4.671-4.96,7.076.568.028,1.821.042,2.465.09-.773,1.149-1.558,2.129-2.349,3.164a10.4,10.4,0,0,1-1.243.2l.718.144c-.389.054-.789.064-1.183.08a31.3,31.3,0,0,0,4.572,13.019,37.438,37.438,0,0,0,10.208,10.969,46.84,46.84,0,0,0,10.184,5.754c1.246.493,2.51.959,3.916,1.473q.671.246,1.394.472a18.061,18.061,0,0,0-.168-2.6c-.953.009-2,.423-2.893.155.671-1.288,1.406-2.782,2.067-4.391.448-1.092.858-2.357,1.24-3.565a9.046,9.046,0,0,0,.413-1.188,5.066,5.066,0,0,0-.982-3.823,17.737,17.737,0,0,0-.672,2.377,13.838,13.838,0,0,1-.827,2.222c-.687,1.361-1.735,2.377-2.48,3.617-.738.487-1.807,1.193-2.842.672v-.775a2.6,2.6,0,0,1,1.7-.62,17.354,17.354,0,0,0,2.376-4.7c.23-.912.436-1.89.672-2.842.359-1.446.382-3.3,1.49-3.815a5.307,5.307,0,0,1,.76-.287c1.367-.322,1.481-.551,1.207-.682a5.735,5.735,0,0,0-1.066-.022c-.267.007-.59-.273-.444-1.13.04-.236.445-2.352.6-3.332a3.244,3.244,0,0,1,1.219-2.242c.7-.238.6-.333,1.31-.324a2.515,2.515,0,0,1,1.471.324,1.964,1.964,0,0,1,.735,1.076,11.374,11.374,0,0,1,.521,2.26c.205,1.509.426,3.058-.059,3.145-.625.111-1.2.068-1.27.184-.232.385.843.322,1.239.385a3.661,3.661,0,0,1,1.22.413,7.219,7.219,0,0,1,1.4,2.343,16.59,16.59,0,0,0,1.291,2.531,17.613,17.613,0,0,1,1.344,2.48,11.569,11.569,0,0,0,1.137,2.635c.465.518,1.283.661,1.387,1.583a10.139,10.139,0,0,0,3.632.022c.933-.241,2.272-.734,1.7-2.118-.335-.04-.78.154-1.085-.052-.444-.3-.532-1.79-.414-2.635a11.445,11.445,0,0,1,.517-2.222c.153-.39.529-.818.517-1.343.3-.182,1.211.4,1.136-.31h.258v.052c.829.2,1.684.383,2.48.62a3.967,3.967,0,0,1,1.085,3,3.675,3.675,0,0,1-.517,1.343c-.719,1.129-2.212,1.235-1.964,2.687.489.54,1.474.684,2.222,1.085.187.1.326.279.517.362a4.254,4.254,0,0,0,3.328-.349,2.348,2.348,0,0,0-.12-.534c.465-.842.844-1.791,1.292-2.79.4-.9,1-1.765,1.343-2.738.354-1.011.637-2.063,1.033-3.048.2-.487.419-.97.62-1.447.214-.5.332-1.07.568-1.5.575-1.041,1.757-1.217,2.79-1.7.186-.677-.294-1.032-.62-1.446a4.493,4.493,0,0,1-.775-1.292c-.207-.636-.15-1.356-.31-2.067a3.743,3.743,0,0,1-.259-.878c0-.991.7-1.425,1.177-2.034a1.055,1.055,0,0,0,.941-.239v-.465c.068,0,.16.112.229.112.4.543,1.221.069,1.992.2,1.169.2,1.43,1.165,1.343,2.79a12.067,12.067,0,0,1-.1,1.447c-.042.2-.237.4-.31.62s-.033.443-.1.62c-.377.953-1.29,1.391-.723,2.635a5.862,5.862,0,0,1,1.756.723,2.9,2.9,0,0,1,1.808-.207l-.568-3.513a6.213,6.213,0,0,0-.679-.978c.419-.988-1-1.616-.3-2.225,1.213.147,2.048.673,1.912,2.17a20.389,20.389,0,0,1,1.705,2.273c.224,1.374,1,2.683.465,3.823-.4.867-1.654,1.109-2.531,1.653a2.883,2.883,0,0,0-1.343,2.841c.02.177.172.559.207.775.178,1.091.153,2.324.31,3.513.334,2.54.726,5.461,1.006,8.207A44.335,44.335,0,0,0,1388.052,217.2Z" transform="translate(-61.559 -122.176)" fill="#6e6e6e" fill-rule="evenodd"/>
    <path id="Trazado_147" data-name="Trazado 147" d="M1586.5,392.274c-.274.132-.325.517-.413.775-.651,1.9-1.395,3.955-1.912,6.1-.1.4-.2.8-.3,1.2.6-.18,1.182-.369,1.752-.569.9-.317,1.779-.648,2.639-.991,0-.017-.005-.036-.008-.053C1587.849,396.413,1586.952,394.328,1586.5,392.274Z" transform="translate(-278.787 -292.545)" fill="#6e6e6e" fill-rule="evenodd"/>
    <path id="Trazado_148" data-name="Trazado 148" d="M1579.062,494.908a1.306,1.306,0,0,0,.679-.577,1.412,1.412,0,0,0,.121-.981,1.5,1.5,0,0,0-.382-.791,1.307,1.307,0,0,0-.747-.377,6.871,6.871,0,0,0-1.886.19l-1.69.315.543,2.917,1.938-.361A9.2,9.2,0,0,0,1579.062,494.908Z" transform="translate(-272.051 -369.755)" fill="#6e6e6e" fill-rule="evenodd"/>
    <path id="Trazado_149" data-name="Trazado 149" d="M1574.953,475.525a1.378,1.378,0,0,0,.772-.548,1.207,1.207,0,0,0,.149-.91,1.257,1.257,0,0,0-.418-.772,1.2,1.2,0,0,0-.86-.236q-.318.021-1.8.3l-1.2.224.47,2.522,1.372-.256Q1574.663,475.617,1574.953,475.525Z" transform="translate(-269.3 -354.984)" fill="#6e6e6e" fill-rule="evenodd"/>
    <path id="Trazado_150" data-name="Trazado 150" d="M1359.052,81.707a5.472,5.472,0,0,0,1.108-.668,1.93,1.93,0,0,0,.565-.8,2.418,2.418,0,0,0,.021-1.217,7.739,7.739,0,0,0-.717-1.935,7.075,7.075,0,0,0-1.079-1.692,2.6,2.6,0,0,0-1.024-.7,1.989,1.989,0,0,0-1.118-.035,9.135,9.135,0,0,0-1.616.68l-.859.425,3.292,6.651Z" transform="translate(-101.367 -46.996)" fill="#6e6e6e" fill-rule="evenodd"/>
    <path id="Trazado_151" data-name="Trazado 151" d="M1321.18,109.338l2.334-1.689-3.616-2.515Z" transform="translate(-74.75 -70.602)" fill="#6e6e6e" fill-rule="evenodd"/>
    <path id="Trazado_152" data-name="Trazado 152" d="M1637.243,70.092a1.4,1.4,0,0,0,.117-.949,1.283,1.283,0,0,0-.55-.732q-.22-.142-1.4-.676l-1.516-.686-1.172,2.59,1.437.651a7.693,7.693,0,0,0,1.8.665,1.157,1.157,0,0,0,.74-.185A1.527,1.527,0,0,0,1637.243,70.092Z" transform="translate(-316.545 -41.165)" fill="#6e6e6e" fill-rule="evenodd"/>
    <path id="Trazado_153" data-name="Trazado 153" d="M1718.328,122.5a1.285,1.285,0,0,0-.288-.869q-.163-.205-1.111-1.089l-1.217-1.135-1.939,2.079,1.154,1.076a7.693,7.693,0,0,0,1.495,1.206,1.157,1.157,0,0,0,.76.061,1.525,1.525,0,0,0,.731-.467A1.4,1.4,0,0,0,1718.328,122.5Z" transform="translate(-379.193 -81.637)" fill="#6e6e6e" fill-rule="evenodd"/>
  </g>
</svg>
