<svg xmlns="http://www.w3.org/2000/svg" width="159.766" height="111.942" viewBox="0 0 159.766 111.942">
  <g id="Grupo_241" data-name="Grupo 241" transform="translate(-14.581 -73.855)">
    <path id="Trazado_165" data-name="Trazado 165" d="M150.749,90.081c-15.054-10.463-35.043-16.226-56.284-16.226h0c-21.241,0-41.23,5.762-56.285,16.226-15.218,10.577-23.6,24.692-23.6,39.746S22.962,159,38.18,169.572C53.235,180.034,73.223,185.8,94.465,185.8h0c21.241,0,41.23-5.763,56.284-16.226,15.218-10.577,23.6-24.692,23.6-39.746S165.966,100.658,150.749,90.081Zm-133.2,40.924H29.005a50.757,50.757,0,0,0,4.467,21.037H24.619A39.783,39.783,0,0,1,17.552,131.005Zm27.552,0h3.222l.663,4.547H44.414ZM64.978,91.094h13.2a55.876,55.876,0,0,0-2.64,6.1H69.566v6.015h4.09c-.524,1.977-.97,3.973-1.345,5.969H53.491a49.625,49.625,0,0,1,3.483-7.628A48.022,48.022,0,0,1,64.978,91.094Zm7.685,23.289q.279-2.084.621-4.022H91.122v19.464H71.663q0-1.087.025-2.146l5.532-13.3Zm18.46,16.622v21.037H73.6a112.318,112.318,0,0,1-1.942-21.037Zm0,22.217v18.284H80.756a57.992,57.992,0,0,1-6.911-18.284Zm0,19.464v9.482a28.518,28.518,0,0,1-7.892-7.1q-.9-1.153-1.72-2.382ZM73.5,109.182c.407-2.126.869-4.112,1.373-5.969H91.122v5.969Zm3.3-11.983a54.553,54.553,0,0,1,2.715-6.1h11.6v6.1Zm3.35-7.284a41.61,41.61,0,0,1,3.016-4.661,30.839,30.839,0,0,1,7.952-7.579V89.915Zm2.141-5.46a43.548,43.548,0,0,0-3.492,5.46h-12.6A52.2,52.2,0,0,1,72.247,85.1,60.462,60.462,0,0,1,90.1,76.91,32.3,32.3,0,0,0,82.3,84.455ZM72.1,110.362q-.352,2.018-.614,4.022H69.326l-4.035,10.987H65.2l-3.947-10.987H53.271l6.283,15.442H54.9L51.717,115.17q.582-2.468,1.367-4.808ZM45.283,129.826l1.419-9.343h.09l1.363,9.343Zm9.876,1.18h4.875l1.175,2.887V148.02H69.1V133.892l1.2-2.887h.18A111.581,111.581,0,0,0,72.4,152.043H53.673q-.736-1.962-1.327-4.022h6.511ZM72.64,153.222a60.17,60.17,0,0,0,6.75,18.284H67.375a46.483,46.483,0,0,1-10.4-12.417,47.616,47.616,0,0,1-2.842-5.867Zm7.472,19.464c.737,1.16,1.473,2.195,2.191,3.11a30.314,30.314,0,0,0,7.485,6.95l-.159-.007a58.639,58.639,0,0,1-17.391-7.6q-1.774-1.166-3.414-2.449ZM62.234,83.74a95.381,95.381,0,0,1,20.919-6.362q1.09-.111,2.189-.2A60.693,60.693,0,0,0,71.62,84.1a53.072,53.072,0,0,0-7.127,5.814H51.144A67.939,67.939,0,0,1,62.234,83.74ZM49.116,89.915H43.874A89.9,89.9,0,0,1,69.5,79.671c-2.533.843-5.129,1.827-7.719,2.979A67.831,67.831,0,0,0,49.116,89.915Zm14.206,1.18a49.109,49.109,0,0,0-7.359,9.853,50.863,50.863,0,0,0-3.729,8.234H34.554a44.226,44.226,0,0,1,5.618-9.137,50.37,50.37,0,0,1,9.335-8.951ZM51.841,110.362q-.641,1.968-1.149,4.021H42.038l-3.377,15.443H30.185a50.645,50.645,0,0,1,3.84-19.464ZM29.005,129.826H17.53a38.812,38.812,0,0,1,5.37-19.464h9.852A51.993,51.993,0,0,0,29.005,129.826Zm1.18,1.18H38.4l-3.721,17.015H42.62l.942-6.549H49.7q.265,1.663.611,3.275l.56,3.273h.242c.383,1.374.819,2.712,1.3,4.022H34.772A49.385,49.385,0,0,1,30.185,131.005Zm22.669,22.217a48.945,48.945,0,0,0,3.111,6.48,47.526,47.526,0,0,0,9.611,11.8H52.641A50.665,50.665,0,0,1,40.17,160.6a43.219,43.219,0,0,1-4.806-7.378Zm14.087,19.464a52.127,52.127,0,0,0,4.688,3.461,58.525,58.525,0,0,0,12.8,6.249q-2.2-.2-4.361-.484A91.588,91.588,0,0,1,62.226,176.5a69.554,69.554,0,0,1-7.629-3.813Zm-5.148,4.91q1.171.5,2.341.954a90.654,90.654,0,0,1-14.905-5.864h3.078A69.154,69.154,0,0,0,61.793,177.6Zm-19.81-86.5h5.582a50.849,50.849,0,0,0-8.3,8.2,45.419,45.419,0,0,0-6,9.887H23.6A58.451,58.451,0,0,1,41.984,91.094ZM25.438,153.222h8.6a44.383,44.383,0,0,0,5.229,8.133,51.036,51.036,0,0,0,11.218,10.151H46.963C37.951,166.618,30.561,160.372,25.438,153.222Zm72.369,29.573V103.213h21.427V97.2H97.807V76.858c40.876,1.211,73.59,24.5,73.59,52.968S138.683,181.584,97.807,182.795Z" transform="translate(0)" fill="#6e6e6e"/>
    <path id="Trazado_166" data-name="Trazado 166" d="M289.782,214.182a5.515,5.515,0,0,1,1.313-2.741,5.448,5.448,0,0,1,3.1-1.164h9.895l2.328-2.328H279.358l.019,6.179a3.361,3.361,0,0,1-3.047,2.016c-2.5.075-5.4-1.836-6.244-2.44l3.351-.09a2.887,2.887,0,1,0-.175-.961,2.953,2.953,0,0,0,.051.5l-16.828-.431a4.974,4.974,0,0,1-1.769-1.4,5.424,5.424,0,0,1-.847-2.506l-.48.48v8.2l.48.478a5.43,5.43,0,0,1,.847-2.507,4.977,4.977,0,0,1,1.769-1.4l10.719-.287,4.618,4.87,36.64-.031,4.51-4.462Z" transform="translate(-142.469 -79.999)" fill="#6e6e6e"/>
    <path id="Trazado_167" data-name="Trazado 167" d="M264,171.066a4.973,4.973,0,0,1,1.769-1.4l10.719-.287,4.619,4.87,31.158.011,4.511-4.462-17.708-.017a5.507,5.507,0,0,1,1.313-2.74,5.437,5.437,0,0,1,3.1-1.164l7.228.006,2.329-2.328-24.4-.006.019,6.177a3.361,3.361,0,0,1-3.047,2.016c-2.5.074-5.394-1.836-6.244-2.44l3.351-.09a3.005,3.005,0,1,0-.124-.461l-16.828-.431a4.972,4.972,0,0,1-1.769-1.4,5.417,5.417,0,0,1-.848-2.505l-.48.478v8.2l.48.478A5.427,5.427,0,0,1,264,171.066Z" transform="translate(-148.007 -53.51)" fill="#6e6e6e"/>
    <path id="Trazado_168" data-name="Trazado 168" d="M281.382,259.136a5.451,5.451,0,0,1,3.1-1.164l8.393.008,2.328-2.328-25.562-.008.019,6.179a3.361,3.361,0,0,1-3.047,2.016c-2.5.075-5.394-1.836-6.244-2.44l3.351-.09a3,3,0,1,0-.124-.461l-16.828-.432a4.967,4.967,0,0,1-1.769-1.4,5.418,5.418,0,0,1-.848-2.505l-.48.478v8.2l.48.478a5.424,5.424,0,0,1,.848-2.506,4.977,4.977,0,0,1,1.769-1.4l10.719-.287,4.619,4.871,33.146.025,4.511-4.462-19.7-.031A5.516,5.516,0,0,1,281.382,259.136Z" transform="translate(-136.674 -108.453)" fill="#6e6e6e"/>
  </g>
</svg>
