<svg id="Grupo_281" data-name="Grupo 281" xmlns="http://www.w3.org/2000/svg" width="125.001" height="124.944" viewBox="0 0 125.001 124.944">
  <g id="Grupo_280" data-name="Grupo 280">
    <g id="Grupo_264" data-name="Grupo 264">
      <path id="Trazado_196" data-name="Trazado 196" d="M207.34,506.75c-16.493,0-32.2-7.209-44.222-20.3a69.022,69.022,0,0,1-18.247-46.07c0-18.637,0-34.732,10.69-45.352,9.25-9.191,25.711-13.395,51.789-13.22,27.632.181,44.618,4.444,53.457,13.415,9.282,9.422,9.167,23.177,9.034,39.1-.016,1.976-.033,3.995-.033,6.053a69.026,69.026,0,0,1-18.247,46.07C239.537,499.541,223.833,506.75,207.34,506.75Zm-1.524-121.6c-24.255,0-39.5,3.906-47.9,12.255-9.7,9.641-9.7,24.355-9.7,42.982a65.641,65.641,0,0,0,17.367,43.81c11.383,12.392,26.214,19.216,41.761,19.216s30.378-6.824,41.761-19.216a65.643,65.643,0,0,0,17.367-43.81c0-2.068.017-4.1.033-6.081.132-15.809.236-28.3-8.074-36.731-8.176-8.3-24.413-12.245-51.1-12.419Q206.567,385.147,205.817,385.146Z" transform="translate(-144.871 -381.806)" fill="#6e6e6e"/>
    </g>
    <path id="Sustracción_2" data-name="Sustracción 2" d="M39.363,78.733a35.581,35.581,0,0,1-15.323-3.488,39.358,39.358,0,0,1-6.686-4.034,42.2,42.2,0,0,1-5.826-5.27,44.287,44.287,0,0,1-8.436-13.38A43.231,43.231,0,0,1,.8,44.886,41.282,41.282,0,0,1,0,36.845C0,26.118,0,16.853,4.8,10.337,7.333,6.9,11.061,4.409,16.2,2.725,21.794.891,29.056,0,38.4,0c.322,0,.646,0,.965,0,9.209.06,16.422.8,22.054,2.268,5.237,1.363,9.094,3.357,11.793,6.1,2.612,2.651,4.181,6.015,4.937,10.588a85.042,85.042,0,0,1,.6,13.96c-.01,1.2-.022,2.552-.022,3.93a41.265,41.265,0,0,1-.8,8.042,43.214,43.214,0,0,1-2.293,7.675A44.288,44.288,0,0,1,67.2,65.941a42.24,42.24,0,0,1-5.826,5.27,39.377,39.377,0,0,1-6.686,4.034A35.583,35.583,0,0,1,39.363,78.733ZM29.628,60.517a8.084,8.084,0,0,1,1.62.149c1.926.39,3.665,1.852,5.2,3.143l.006.005c.294.247.572.481.844.7.447.361.9.75,1.329,1.127a15.057,15.057,0,0,0,4.5,3.052,8.3,8.3,0,0,0,2.813.5,8.481,8.481,0,0,0,3.449-.75,9.954,9.954,0,0,0,2.645-1.73,12.628,12.628,0,0,0,3.26-4.994,11.856,11.856,0,0,0,.37-6.993,17.408,17.408,0,0,0-1.7-3.816c-.32-.587-.65-1.193-.935-1.792a54,54,0,0,1-2.31-5.938c-.3-.92-.57-1.872-.854-2.88a26.986,26.986,0,0,0-2.771-7.214,7.449,7.449,0,0,0-2.435-2.435,6.982,6.982,0,0,0-3.668-.932c-.3,0-.618.015-.938.043a12.768,12.768,0,0,0-4.729,1.65c-.778.4-1.549.87-2.366,1.369-.757.463-1.541.941-2.364,1.381-1.567.836-3.251,1.721-4.948,2.529-1.011.481-2.04.926-3.035,1.355a28.3,28.3,0,0,0-6.862,3.7A13.4,13.4,0,0,0,12.372,46.5a13.27,13.27,0,0,0-1.25,6.141A7.469,7.469,0,0,0,15.5,59.065,20.169,20.169,0,0,0,24.565,60.8c.422,0,.858-.008,1.295-.023.553-.019,1.118-.073,1.665-.125C28.216,60.585,28.927,60.517,29.628,60.517Zm37.29-29.279A6.629,6.629,0,0,0,66,31.3a8.807,8.807,0,0,0-4.838,2.419,13.456,13.456,0,0,0-2.773,4.237A13.824,13.824,0,0,0,57.2,43.621a9.522,9.522,0,0,0,2.057,5.848,6.337,6.337,0,0,0,4.914,2.448,7.39,7.39,0,0,0,3.807-1.147A13.168,13.168,0,0,0,73.007,44a11.447,11.447,0,0,0-.3-9.183A6.687,6.687,0,0,0,66.918,31.238ZM21.03,14.186a7.21,7.21,0,0,0-1,.072A9.048,9.048,0,0,0,14.8,17.051a13.463,13.463,0,0,0-3.016,5.125,11.84,11.84,0,0,0,1.27,10.162A5.847,5.847,0,0,0,17.9,34.929a7.856,7.856,0,0,0,3.014-.657,8.908,8.908,0,0,0,2.771-1.893A13.015,13.015,0,0,0,25.9,29.443a13.764,13.764,0,0,0,1.823-7.378,9.9,9.9,0,0,0-1.862-5.418A5.912,5.912,0,0,0,21.03,14.186Zm37.32-3.274h0a7.565,7.565,0,0,0-.819.046,8.883,8.883,0,0,0-4.948,2.31,13.39,13.39,0,0,0-3.031,4.489,13.67,13.67,0,0,0-1.038,6.4,9.307,9.307,0,0,0,1.952,5.1,6.052,6.052,0,0,0,4.81,2.3,7.778,7.778,0,0,0,1.487-.149,9.516,9.516,0,0,0,5.627-3.872,13.753,13.753,0,0,0,2.62-6.8,12.757,12.757,0,0,0-.361-4.419,8.418,8.418,0,0,0-1.831-3.472,5.906,5.906,0,0,0-4.467-1.943ZM40.1,3.42a7.44,7.44,0,0,0-.935.061,8.973,8.973,0,0,0-5.058,2.528,13.332,13.332,0,0,0-2.64,4.055,14.056,14.056,0,0,0-1.21,5.623A9.431,9.431,0,0,0,32.3,21.6a6.4,6.4,0,0,0,4.966,2.48,7.3,7.3,0,0,0,3.773-1.133,11.855,11.855,0,0,0,4.081-4.36,13.772,13.772,0,0,0,1.747-6.747,10.171,10.171,0,0,0-1.7-5.725A6,6,0,0,0,40.1,3.42Z" transform="translate(23.117 23.106)" fill="#6e6e6e" stroke="rgba(0,0,0,0)" stroke-miterlimit="10" stroke-width="1"/>
    <g id="Grupo_271" data-name="Grupo 271" transform="translate(16.307 81.805)">
      <path id="Trazado_203" data-name="Trazado 203" d="M167.736,499.393a5.8,5.8,0,0,1-.677-2.71c.019-.847.277-1.366.746-1.56l4.664-1.931a1.583,1.583,0,0,1,1.573.41,5.19,5.19,0,0,1,1.46,1.851,36.088,36.088,0,0,0,3.446,5.742l-1.541,1.119a37.6,37.6,0,0,1-3.172-5.166,1.193,1.193,0,0,0-.364-.432.364.364,0,0,0-.385-.076l-3.584,1.834c-.109.057-.162.182-.159.381a1.338,1.338,0,0,0,.165.6,41.66,41.66,0,0,0,3.524,5.74l-1.541,1.119a43.57,43.57,0,0,1-4.153-6.924" transform="translate(-167.058 -493.111)" fill="#6e6e6e"/>
    </g>
    <g id="Grupo_272" data-name="Grupo 272" transform="translate(21.65 94.145)">
      <path id="Trazado_204" data-name="Trazado 204" d="M183.347,509.936a1.479,1.479,0,0,1,1.055.193,4.268,4.268,0,0,1,1.083.809,4.163,4.163,0,0,1,.811,1.073,1.472,1.472,0,0,1,.195,1.048,47.421,47.421,0,0,0-1.571,8.972c-1.222-.894-1.819-1.366-2.98-2.362.14-.864.22-1.292.391-2.142a39.623,39.623,0,0,1-3.378-3.356c-.849.177-1.278.256-2.143.4-1.031-1.188-1.528-1.807-2.48-3.1a41.953,41.953,0,0,0,9.02-1.536m.108,3.066c-.98.3-1.476.442-2.481.7.708.745,1.071,1.1,1.812,1.8.246-1.01.379-1.51.669-2.5" transform="translate(-174.328 -509.901)" fill="#6e6e6e"/>
    </g>
    <g id="Grupo_273" data-name="Grupo 273" transform="translate(34.104 100.747)">
      <path id="Trazado_205" data-name="Trazado 205" d="M193.312,526.99a4.587,4.587,0,0,1-1.751-1.737,1.5,1.5,0,0,1-.087-1.634l2.893-4.156a1.587,1.587,0,0,1,1.444-.58,4.045,4.045,0,0,1,2,.62,34.651,34.651,0,0,0,5.413,2.706l-.738,1.755a36.233,36.233,0,0,1-4.937-2.408.981.981,0,0,0-.489-.138.367.367,0,0,0-.343.157c-.827,1.387-1.24,2.081-2.068,3.468a.371.371,0,0,0,.043.391,1.061,1.061,0,0,0,.4.384,40.219,40.219,0,0,0,5.485,2.675c-.3.7-.444,1.055-.739,1.758a41.7,41.7,0,0,1-6.528-3.263" transform="translate(-191.273 -518.883)" fill="#6e6e6e"/>
    </g>
    <g id="Grupo_274" data-name="Grupo 274" transform="translate(43.848 104.462)">
      <path id="Trazado_206" data-name="Trazado 206" d="M215.524,534.929c-1.39-.2-2.081-.328-3.456-.626.3-1.332.447-2,.742-3.33-1.582-.343-2.368-.547-3.921-1.022-.409,1.3-.614,1.954-1.023,3.257-1.348-.412-2.015-.641-3.335-1.147,1.273-3.248,1.909-4.874,3.18-8.122,1.094.419,1.649.609,2.766.952-.408,1.3-.611,1.947-1.018,3.244a38.284,38.284,0,0,0,3.764.981l.739-3.318c1.139.246,1.712.349,2.865.519-.522,3.445-.782,5.168-1.3,8.612" transform="translate(-204.531 -523.938)" fill="#6e6e6e"/>
    </g>
    <g id="Grupo_275" data-name="Grupo 275" transform="translate(56.728 107.243)">
      <path id="Trazado_207" data-name="Trazado 207" d="M231.487,528.167a1.581,1.581,0,0,1,.963,1.2c.213,2.009.318,3.013.531,5.023a1.494,1.494,0,0,1-.839,1.382,4.451,4.451,0,0,1-2.322.679,44.13,44.13,0,0,1-4.594-.025,4.5,4.5,0,0,1-2.336-.707,1.5,1.5,0,0,1-.825-1.392c.237-2.006.354-3.01.591-5.016a1.579,1.579,0,0,1,.979-1.19,3.916,3.916,0,0,1,2.034-.392,36.364,36.364,0,0,0,3.809.021,3.872,3.872,0,0,1,2.011.417m-5.609,1.6a.361.361,0,0,0-.224.3c-.078,1.609-.118,2.414-.195,4.022a.37.37,0,0,0,.217.324,1.1,1.1,0,0,0,.553.152c1.043.033,1.563.033,2.607.012a1.049,1.049,0,0,0,.534-.144.369.369,0,0,0,.22-.321c-.059-1.61-.09-2.414-.148-4.024a.361.361,0,0,0-.22-.3.94.94,0,0,0-.486-.112c-.939.018-1.409.016-2.347-.013a.986.986,0,0,0-.509.106" transform="translate(-222.055 -527.722)" fill="#6e6e6e"/>
    </g>
    <g id="Grupo_276" data-name="Grupo 276" transform="translate(68.326 105.313)">
      <path id="Trazado_208" data-name="Trazado 208" d="M245.563,530.415a38.329,38.329,0,0,0,4.681,2.1c-1.543.576-2.323.833-3.9,1.283a38.6,38.6,0,0,1-3.817-2.059,1.236,1.236,0,0,1-.663-.811,1.066,1.066,0,0,1,.229-.915,1.6,1.6,0,0,1,.926-.569c.639-.153.955-.234,1.588-.409a1.009,1.009,0,0,0,.47-.263.355.355,0,0,0,.119-.358c-.1-.342-.155-.512-.259-.853a.365.365,0,0,0-.292-.237.988.988,0,0,0-.52.019c-1.2.333-1.806.478-3.025.727.561,2.666.84,4,1.4,6.665-1.377.281-2.07.4-3.461.586-.481-3.451-.723-5.176-1.2-8.627a36.024,36.024,0,0,0,6.52-1.4,3.971,3.971,0,0,1,2.082-.107,1.587,1.587,0,0,1,1.244.92c.243.639.362.958.6,1.6a1.389,1.389,0,0,1-.426,1.466,4.23,4.23,0,0,1-1.97,1.148c-.129.039-.2.057-.326.1" transform="translate(-237.836 -525.096)" fill="#6e6e6e"/>
    </g>
    <g id="Grupo_277" data-name="Grupo 277" transform="translate(78.878 100.362)">
      <path id="Trazado_209" data-name="Trazado 209" d="M260.688,523.674a36.569,36.569,0,0,0,5.114.773,41.05,41.05,0,0,1-3.492,2.3,37.366,37.366,0,0,1-4.254-.989,1.245,1.245,0,0,1-.856-.614,1.073,1.073,0,0,1-.006-.948,1.627,1.627,0,0,1,.758-.792c.585-.316.875-.48,1.449-.818a1.06,1.06,0,0,0,.392-.38.361.361,0,0,0,.027-.38c-.187-.3-.284-.455-.472-.759a.363.363,0,0,0-.345-.151,1.036,1.036,0,0,0-.5.156c-1.089.642-1.644.943-2.771,1.5,1.227,2.439,1.843,3.657,3.071,6.1-1.273.631-1.92.922-3.229,1.461l-3.376-8.046a34.608,34.608,0,0,0,6.012-3.059,4.089,4.089,0,0,1,2.009-.665,1.586,1.586,0,0,1,1.454.554l1,1.388a1.409,1.409,0,0,1-.046,1.544,4.358,4.358,0,0,1-1.637,1.645c-.117.073-.176.11-.295.181" transform="translate(-252.193 -518.36)" fill="#6e6e6e"/>
    </g>
    <g id="Grupo_278" data-name="Grupo 278" transform="translate(89.287 92.516)">
      <path id="Trazado_210" data-name="Trazado 210" d="M272.386,507.834a1.559,1.559,0,0,1,1.566.113c1.575,1.272,2.361,1.908,3.936,3.179a1.53,1.53,0,0,1,.345,1.638,4.974,4.974,0,0,1-1.252,2.256,40.863,40.863,0,0,1-3.443,3.4,4.743,4.743,0,0,1-2.237,1.191,1.5,1.5,0,0,1-1.592-.4l-3.1-4.008a1.578,1.578,0,0,1-.111-1.554,4.2,4.2,0,0,1,1.234-1.755,34.276,34.276,0,0,0,2.856-2.817,4.411,4.411,0,0,1,1.795-1.238m-3.055,5.352a.362.362,0,0,0,.042.379l2.688,3.013a.373.373,0,0,0,.392.073,1.187,1.187,0,0,0,.518-.3c.8-.745,1.191-1.13,1.955-1.928a1.164,1.164,0,0,0,.295-.5.375.375,0,0,0-.062-.4l-2.945-2.76a.358.358,0,0,0-.376-.049,1.051,1.051,0,0,0-.442.285c-.687.72-1.041,1.066-1.76,1.736a1.084,1.084,0,0,0-.3.448" transform="translate(-266.356 -507.684)" fill="#6e6e6e"/>
    </g>
    <g id="Grupo_279" data-name="Grupo 279" transform="translate(97.3 81.189)">
      <path id="Trazado_211" data-name="Trazado 211" d="M284.745,494.751c.611-.5,1.146-.672,1.614-.478l1.514.628c.468.194.728.713.747,1.56a5.85,5.85,0,0,1-.69,2.734,43.416,43.416,0,0,1-4.636,7.583l-1.523-1.144a41.7,41.7,0,0,0,3.989-6.375,1.335,1.335,0,0,0,.171-.617.377.377,0,0,0-.167-.367l-.549-.281a.373.373,0,0,0-.39.076,1.322,1.322,0,0,0-.4.48c-.725,1.377-1.112,2.042-1.922,3.325a4.639,4.639,0,0,1-1.794,1.746,1.458,1.458,0,0,1-1.61.011c-.528-.4-.794-.6-1.324-.994a1.569,1.569,0,0,1-.511-1.495A4.737,4.737,0,0,1,278.05,499a37.236,37.236,0,0,0,3.474-6.732c.7.291,1.056.436,1.758.728a39.1,39.1,0,0,1-3.152,6.257,1.152,1.152,0,0,0-.183.537.369.369,0,0,0,.143.355l.531.34a.355.355,0,0,0,.381-.029,1.133,1.133,0,0,0,.4-.42c.757-1.255,1.117-1.905,1.79-3.25a6.084,6.084,0,0,1,1.55-2.039" transform="translate(-277.259 -492.272)" fill="#6e6e6e"/>
    </g>
  </g>
</svg>
