<svg xmlns="http://www.w3.org/2000/svg" width="116.723" height="116.124" viewBox="0 0 116.723 116.124">
  <g id="Grupo_240" data-name="Grupo 240" transform="translate(-7.962 -8.503)">
    <g id="Grupo_238" data-name="Grupo 238" transform="translate(14.692 28.093)">
      <path id="Trazado_155" data-name="Trazado 155" d="M87.274,54.3c-1.358.4-10.057,2.919-16.035,3.132-5.367.189-13.663-1.314-16.274-1.821.414,3.182,2.119,15.067,5.232,21.686C66,89.627,84.631,101.93,87.273,103.629c2.64-1.7,21.282-14,27.08-26.343,3.111-6.618,4.789-18.5,5.2-21.678-2.524.492-10.349,1.924-15.441,1.821C97.83,57.3,88.674,54.7,87.274,54.3Zm29.252,3.332.876-.231-.148.895c-.086.518-2.139,12.759-5.45,19.407-6.024,12.1-23.7,23.192-24.445,23.658l-.31.193-.31-.193C85.989,100.891,68.322,89.8,62.3,77.707c-3.313-6.651-5.37-18.9-5.456-19.416l-.148-.893.875.23c.091.024,9.192,2.388,14.916,1.925,5.64-.455,14.288-3.406,14.374-3.436l.188-.065.189.063c.091.03,9.174,3.047,15.085,3.437C107.78,59.913,116.438,57.651,116.525,57.627Z" transform="translate(-35.674 -48.536)" fill="#6e6e6e"/>
      <path id="Trazado_156" data-name="Trazado 156" d="M20.119,43.891l51.675,84.544,51.479-84.544Zm51.581,57.3S49.9,88.031,43.144,73.593c-4.312-9.207-5.7-25.754-5.7-25.754S47.792,51.207,54.588,51.2,71.7,47.839,71.7,47.839s10.851,3.5,17.957,3.366c6.473-.12,16.3-3.365,16.3-3.365s-1.39,16.539-5.7,25.744C93.5,88.026,71.7,101.193,71.7,101.193Z" transform="translate(-20.119 -43.891)" fill="#6e6e6e"/>
    </g>
    <g id="Grupo_239" data-name="Grupo 239" transform="translate(7.962 8.503)">
      <path id="Trazado_157" data-name="Trazado 157" d="M144.775,24.646H144v5.642h1.285c1.321,0,2.368-.071,2.368-2.809C147.656,24.646,146.442,24.646,144.775,24.646Z" transform="translate(-68.692 -15.709)" fill="#6e6e6e"/>
      <path id="Trazado_158" data-name="Trazado 158" d="M58.151,28.8h2.333l-1.179-3.166Z" transform="translate(-30.367 -16.151)" fill="#6e6e6e"/>
      <path id="Trazado_159" data-name="Trazado 159" d="M43.537,24.646H42.7v2.428h.952c.881,0,2.083,0,2.083-1.226a1.064,1.064,0,0,0-.392-.869C44.965,24.646,44.561,24.646,43.537,24.646Z" transform="translate(-23.471 -15.709)" fill="#6e6e6e"/>
      <path id="Trazado_160" data-name="Trazado 160" d="M180.658,25.706a.954.954,0,0,0-.44-.869c-.322-.19-.536-.19-1.69-.19h-1.345v2.166h1.273A6.51,6.51,0,0,0,180,26.705.984.984,0,0,0,180.658,25.706Z" transform="translate(-83.504 -15.709)" fill="#6e6e6e"/>
      <path id="Trazado_161" data-name="Trazado 161" d="M123.428,19.109H19.388v11.7h104.04ZM35.711,25.745a5.884,5.884,0,0,1-2.285.3H32.3v3.213H30.582V20.734h2.761A5.517,5.517,0,0,1,35.759,21,2.431,2.431,0,0,1,37.1,23.353,2.451,2.451,0,0,1,35.711,25.745Zm8.754,3.511-.738-1.928h-3.4l-.7,1.928H37.788l3.32-8.521H42.93l3.416,8.521Zm8.924-7.082H50.866v7.082H49.152V22.174H46.629v-1.44h6.76Zm8.782,7.082H60.458V25.531H57.09v3.725H55.376V20.734H57.09V24.09h3.369V20.734h1.713Zm8.561-7.082H66.6V24.2h3.57v1.44H66.6v3.618H64.889V20.734h5.844Zm3.794,7.082H72.814V20.734h1.713Zm9.409,0H82.21l-3.4-5.558h-.024v5.558H77.188V20.734h1.666l3.463,5.689h.023V20.734h1.6Zm8.782-.952a3.792,3.792,0,0,1-2.833.952H86.659V20.734H89.8a3.422,3.422,0,0,1,3.285,1.44,4.971,4.971,0,0,1,.714,2.9A4.685,4.685,0,0,1,92.718,28.3Zm9.93.952H96.174V20.734h6.32v1.44H97.887v1.893h4.285v1.44H97.887v2.309h4.761Zm7.973,0L109.383,27.4c-1.035-1.535-1.142-1.7-2.3-1.7h-.345v3.558h-1.714V20.734h3.618a5.728,5.728,0,0,1,1.952.214,2.258,2.258,0,0,1,1.393,2.178,2.183,2.183,0,0,1-1.3,2.095,3.209,3.209,0,0,1-.952.262v.024c.715.4,1.047.714,1.9,2.083l1.036,1.666Z" transform="translate(-13.063 -13.238)" fill="#6e6e6e"/>
      <path id="Trazado_162" data-name="Trazado 162" d="M7.962,8.5V27.977l58.473,96.651,58.25-96.651V8.5Zm113.265,19.37L66.374,118.889,11.31,27.873V11.554H121.227Z" transform="translate(-7.962 -8.503)" fill="#6e6e6e"/>
    </g>
    <path id="Trazado_163" data-name="Trazado 163" d="M123.172,67.347a9.745,9.745,0,0,0-2,.993c-1,.508-11.431,6.137-27.761,14.393q-.937.535-1.785,1.025l-2.1-3.386.192-.12a1.121,1.121,0,0,0,.452-1.525,1.136,1.136,0,0,0-1.568-.28c-.593.371-1.187.743-1.793,1.115a1.068,1.068,0,1,0,1.117,1.805L88.2,81.2l2.078,3.346q-1.686.99-2.98,1.8c-1.418.885-2.423,1.537-3.123,2.086-.324-.507-.644-1.014-.968-1.52a1.185,1.185,0,0,0-1.635-.357c-.2.128-.392.244-.582.37a1.178,1.178,0,0,0-.367,1.636l3.028,4.731a1.188,1.188,0,0,0,1.636.368c.189-.127.391-.256.58-.382a1.18,1.18,0,0,0,.356-1.634c-.283-.448-.571-.9-.856-1.343,1.223-.529,2.708-1.022,3.6-1.409.936-.407.653-.259,2.305-1,.307-.139.574-.259.844-.384l1.615,2.6-.268.168a1.068,1.068,0,1,0,1.116,1.805l1.781-1.114a1.118,1.118,0,0,0,.451-1.525,1.133,1.133,0,0,0-1.568-.279l-.194.121L93.53,86.825c1.1-.553,2.775-1.438,6.058-3.2,6.249-3.351,22.035-12.585,23.151-13.32a12.57,12.57,0,0,0,2.236-1.781,2.912,2.912,0,0,0,.8-1.717A12.638,12.638,0,0,0,123.172,67.347Z" transform="translate(-32.354 -26.026)" fill="#6e6e6e" fill-rule="evenodd"/>
  </g>
</svg>
