<svg xmlns="http://www.w3.org/2000/svg" width="105.799" height="116.424" viewBox="0 0 105.799 116.424">
  <path id="Trazado_164" data-name="Trazado 164" d="M668.37,464.394a24.908,24.908,0,0,1-11.008-4q.451-.43.893-.872a52.9,52.9,0,1,0-40.79,15.384l25.011,10.737,27.1-19.72A5.606,5.606,0,0,1,668.37,464.394Zm2.667-42.281a49.856,49.856,0,0,1-14.7,35.487c-.453.453-.916.894-1.383,1.328-.679-.414-1.378-.837-2.107-1.263,15.469-29.809,15.122-37.569,13.1-48.181,1.321.556,2.631,1.142,3.914,1.749A50.623,50.623,0,0,1,671.037,422.113Zm-16.9-16.75c2.184.615,4.367,1.307,6.5,2.064a47.789,47.789,0,0,1,1.4,17.851c-.842,6.966-3.4,14.35-7.814,22.526C657.594,430.4,656.9,416.269,654.138,405.363Zm14.757,2.162q-1.753-.768-3.628-1.472-.171-.862-.345-1.766c-.177-.926-4.182-5.952-5.878-6.478a.559.559,0,0,0-.593.078c-.288.285-.245,1.039.133,2.3l.1.329c.361,1.208.734,2.457,1.087,3.695-2.051-.61-4.206-1.169-6.409-1.667a54.744,54.744,0,0,0-4.953-11.657A91.027,91.027,0,0,1,664.44,397.2,49.553,49.553,0,0,1,668.895,407.525ZM649.629,428.15c-1.208-11.087-5.385-18.463-11.464-25.939a102.028,102.028,0,0,1,10.4,1.748C650.44,410.743,650.452,419.489,649.629,428.15Zm14.546-31.4.043.074-.043-.069Zm-7.838-10.122a50.855,50.855,0,0,1,4.988,5.8c-5.523-2.7-8.583-3.438-14.728-4.786a114.6,114.6,0,0,0-7-12.1A50.085,50.085,0,0,1,656.338,386.627Zm-70.975,0a49.858,49.858,0,0,1,35.488-14.7,50.869,50.869,0,0,1,7.619.573c-.017,0-.023.011-.013.023,4.313,5.178,8.37,9.318,11.445,13.9a121.17,121.17,0,0,0-59.851,6.528.81.81,0,0,0-.086.041A50.818,50.818,0,0,1,585.362,386.627Zm-8.9,12.025.555-.207c29.668-10.673,47.754-11.72,64.663-9.157a72.011,72.011,0,0,1,6.053,12.136c-3.692-.641-7.536-1.129-11.431-1.45-1.267-1.487-2.571-2.966-3.952-4.531q-.924-1.047-1.871-2.125c-1.63-1.86-7.984-3.146-9.719-2.776-.3.063-.47.172-.516.323s.026.306.205.495c2.834,2.973,5.3,5.65,7.546,8.182a127.487,127.487,0,0,0-31.011,2.98c-10.3,2.381-18.694,5.975-24.964,10.681a3.97,3.97,0,0,0-.7.81A49.634,49.634,0,0,1,576.459,398.652Zm15.4,64.441a50.82,50.82,0,0,1-6.5-5.492,49.856,49.856,0,0,1-14.7-35.487q0-2.318.21-4.6c19.006-11.184,38.822-16.541,58.92-15.913,16.688,19.338,20.6,31.272,16.1,49.1-.078.2-.161.411-.241.616.4-7.814-1.31-17.513-5.644-22.085l-10.047,4.4a8.537,8.537,0,0,0-4.254-2.661L598.3,446.2c-.149-.031,3.992,1.16,5.063,2.617L591.5,456.64a15.678,15.678,0,0,1,7.461.568l-5.859,3.356,1.545.852Zm2.161-2.546,5.442-3.024c3.549.7,9.129,5.791,12.434,10.738C605.8,465.728,598.985,462.788,594.02,460.547Zm19.458,6.7c.221-7.412-6.14-18.738-13.338-21.193L625.8,431.808c1.3,0,3.109,2.261,3.109,2.261l-20.407,9.94C613.645,448.826,615.934,460.045,613.479,467.243Zm28.076,15.784c-2.208.154-9.141-3.8-14.234-7.88-2.679-1.292-6.779-1.745-8.225-1.274L645.7,457.7c1.814-.5,4.416-.309,5.229.744,4.99,2.61,10.057,6.323,17.1,6.57Z" transform="translate(-567.95 -369.215)" fill="#6e6e6e"/>
</svg>
