<svg xmlns="http://www.w3.org/2000/svg" width="65.678" height="46.37" viewBox="0 0 65.678 46.37"><g transform="translate(0)"><path d="M637.928,971.869a.61.61,0,0,0-.6-.614l-14.841-.38a4.313,4.313,0,0,1-1.44-1.162,4.143,4.143,0,0,1-.656-1.707.614.614,0,0,0-1.037-.329l-.04.04a.61.61,0,0,0-.18.434V975.6a.611.611,0,0,0,.181.436l.039.038a.614.614,0,0,0,1.038-.329,4.157,4.157,0,0,1,.656-1.708,4.307,4.307,0,0,1,1.44-1.161l14.841-.4A.61.61,0,0,0,637.928,971.869Z" transform="translate(-578.522 -947.98)" fill="#fff"/><path d="M543.734,915.481c-18.107,0-32.839,10.4-32.839,23.185s14.732,23.185,32.839,23.185,32.839-10.4,32.839-23.185S561.841,915.481,543.734,915.481ZM513.176,939.47h4.943a19.29,19.29,0,0,0,2.049,7.849h-4.276A15.661,15.661,0,0,1,513.176,939.47Zm15.69,8.975H534.8a27.824,27.824,0,0,0,2.437,6.72h-3.759A21.117,21.117,0,0,1,528.866,948.445Zm4.87-8.975a43.618,43.618,0,0,0,.818,7.849h-6.146a24.451,24.451,0,0,1-1.539-7.849Zm4.151,16.821a12.98,12.98,0,0,0,2.517,3.01,16.65,16.65,0,0,1-5.655-3.01Zm1.34,0h2.332v2.495A10.419,10.419,0,0,1,539.227,956.291Zm2.332-1.126h-3.037a25.963,25.963,0,0,1-2.554-6.72h5.591Zm0-7.846h-5.845a42.2,42.2,0,0,1-.853-7.849h6.7Zm-14.7-8.975a24.656,24.656,0,0,1,1.156-7.2h5.728v1.628h.358a45.732,45.732,0,0,0-.371,5.576Zm6.884-9.959v1.629h-5.335a21.761,21.761,0,0,1,3.971-6.69h4.284a29.006,29.006,0,0,0-1.741,5.061Zm-.3-6.187a17.037,17.037,0,0,1,6.961-4.168,14.168,14.168,0,0,0-3.184,4.168Zm8.116-3.652V922.2H538.5A11.673,11.673,0,0,1,541.559,918.547Zm-5.206.035a19.374,19.374,0,0,0-4.473,3.618h-3.265A27.326,27.326,0,0,1,536.353,918.581Zm-9.641,3.618h-1.828a34.958,34.958,0,0,1,5.406-2.33A26.816,26.816,0,0,0,526.712,922.2Zm4.2,1.126a23.183,23.183,0,0,0-3.709,6.69h-5.768a21.865,21.865,0,0,1,5.66-6.69Zm-4.079,7.816a25.82,25.82,0,0,0-1.1,7.2h-6.5a18.075,18.075,0,0,1,1.647-7.2Zm-8.731,7.2h-4.947a15.243,15.243,0,0,1,2.041-7.2h4.45A19.133,19.133,0,0,0,518.105,938.344Zm1.14,1.126h6.5a25.6,25.6,0,0,0,1.463,7.849h-5.768A18.258,18.258,0,0,1,519.246,939.47Zm8.4,8.975a22.624,22.624,0,0,0,4.267,6.72h-3.245a22.756,22.756,0,0,1-6.571-6.72Zm5.4,7.846a19.011,19.011,0,0,0,3.313,2.461,27.821,27.821,0,0,1-5.877-2.461Zm-2.751,1.173c-1.045-.352-2.054-.745-3.029-1.173h1.076Q529.28,956.913,530.289,957.464Zm11.269-19.119h-6.7a44.014,44.014,0,0,1,.388-5.576h6.316Zm-5.466-9.959a27.21,27.21,0,0,1,1.822-5.061h3.645v5.061Zm-13.14-5.061h2.408a22.523,22.523,0,0,0-5.194,6.69h-4.276A23.56,23.56,0,0,1,522.953,923.324Zm-6.253,25.12h4.077a23.332,23.332,0,0,0,5.975,6.72h-1.81A25.64,25.64,0,0,1,516.7,948.445Zm50.9,3.3-10.119-.26a4.316,4.316,0,0,1-1.439-1.162,4.159,4.159,0,0,1-.656-1.707.614.614,0,0,0-1.039-.328l-.038.038a.611.611,0,0,0-.181.435v7.453a.615.615,0,0,0,.18.434l.039.04a.614.614,0,0,0,1.038-.329,4.168,4.168,0,0,1,.656-1.708,4.322,4.322,0,0,1,1.44-1.161l8.145-.217a37.758,37.758,0,0,1-19.713,6.272V932.769h7.815v-4.383h-7.815V917.791c15.853.767,28.412,9.833,28.412,20.875a14.977,14.977,0,0,1-1.534,6.534l-10.606-.272a4.315,4.315,0,0,1-1.439-1.162,4.145,4.145,0,0,1-.656-1.707.614.614,0,0,0-1.038-.328l-.038.038a.615.615,0,0,0-.181.435v7.453a.611.611,0,0,0,.181.436l.038.038a.614.614,0,0,0,1.038-.329,4.152,4.152,0,0,1,.656-1.708,4.328,4.328,0,0,1,1.44-1.161l9.81-.262A21.162,21.162,0,0,1,567.6,951.741Z" transform="translate(-510.894 -915.481)" fill="#fff"/></g></svg>