<svg xmlns="http://www.w3.org/2000/svg" width="32.005" height="32.916" viewBox="0 0 32.005 32.916"><path d="M199.931,69.179l-5.654-5.654a1.266,1.266,0,1,0-1.791,1.791l3.493,3.493H178.016a1.267,1.267,0,0,0,0,2.533h18.12l-3.678,3.967a1.265,1.265,0,0,0,.068,1.789,1.293,1.293,0,0,0,1.789-.068l5.65-6.1A1.262,1.262,0,0,0,199.931,69.179Z" transform="translate(-176.749 -53.617)" fill="#fff"/><path d="M192.613,51.86a16.458,16.458,0,0,0-13.6,7.2,1.267,1.267,0,1,0,2.093,1.428,13.925,13.925,0,1,1,0,15.667,1.267,1.267,0,1,0-2.093,1.428,16.457,16.457,0,1,0,13.6-25.719Z" transform="translate(-177.066 -51.86)" fill="#fff"/></svg>