<svg xmlns="http://www.w3.org/2000/svg" width="32" height="32" viewBox="0 0 32 32"><path d="M981.5,229.249a1.812,1.812,0,0,1-1.24-.488l-6.757-6.329v9.512a.6.6,0,0,0,.6.6h14.795a.6.6,0,0,0,.6-.6v-9.511l-6.757,6.328A1.811,1.811,0,0,1,981.5,229.249Z" transform="translate(-965.551 -211.294)" fill="#fff"/><path d="M989.058,220.5H975.825l6.595,6.176Z" transform="translate(-966.499 -210.435)" fill="#fff"/><path d="M975.576,203.115a16,16,0,1,0,16,16A16,16,0,0,0,975.576,203.115Zm9.541,20.569a2.336,2.336,0,0,1-2.333,2.333H968.262a2.336,2.336,0,0,1-2.333-2.333v-9.871a2.336,2.336,0,0,1,2.333-2.333h14.522a2.336,2.336,0,0,1,2.333,2.333Z" transform="translate(-959.576 -203.115)" fill="#fff"/></svg>