<svg xmlns="http://www.w3.org/2000/svg" width="32" height="32" viewBox="0 0 32 32"><path d="M911.384,202.947a16,16,0,1,0,16,16A16.018,16.018,0,0,0,911.384,202.947Zm9.266,10.177a.451.451,0,0,1-.091.3,7.4,7.4,0,0,1-1.485,1.552c-.085.063-.227.13-.227.25a11.5,11.5,0,0,1-3.034,8.392,11.291,11.291,0,0,1-10.962,2.563,10.482,10.482,0,0,1-2.12-.848c-.224-.122-.444-.249-.66-.392-.055-.044-.1-.085-.049-.114s.082-.025.253,0a7.481,7.481,0,0,0,3.172-.406,4.846,4.846,0,0,0,2.088-1.107c.008-.012.016-.012.025-.025-.139-.033-.277-.033-.416-.057a4.093,4.093,0,0,1-3.057-2.56c-.041-.1,0-.155.106-.135a4.391,4.391,0,0,0,1.455-.045,2.282,2.282,0,0,1-.493-.151,3.943,3.943,0,0,1-2.43-3.143,2.372,2.372,0,0,1-.025-.441c.008-.1.053-.134.143-.077a3.9,3.9,0,0,0,1.484.416c-.167-.13-.322-.273-.473-.416a3.9,3.9,0,0,1-.665-4.607c.074-.11.123-.11.212-.008a11.949,11.949,0,0,0,7.689,3.914c.081.012.089,0,.077-.09a4.128,4.128,0,0,1,.04-1.607,3.918,3.918,0,0,1,.76-1.522,4.071,4.071,0,0,1,1.273-1.039,3.973,3.973,0,0,1,1.577-.446,3.776,3.776,0,0,1,1.663.268,3.962,3.962,0,0,1,1.084.664,1.8,1.8,0,0,1,.2.2.149.149,0,0,0,.154.041,9.612,9.612,0,0,0,2.238-.857.106.106,0,0,1,.1-.008c.033.025.02.066,0,.1a3.468,3.468,0,0,1-.627,1.143c-.179.222-.626.771-.93.823a7.65,7.65,0,0,0,1.884-.538c.076-.034.07-.049.07,0Z" transform="translate(-895.384 -202.947)" fill="#fff"/></svg>