<svg xmlns="http://www.w3.org/2000/svg" width="40.056" height="40.058" viewBox="0 0 40.056 40.058"><path d="M20.029,40.058A20.029,20.029,0,1,1,40.056,20.03,20.051,20.051,0,0,1,20.029,40.058Zm-5.3-24.283a.3.3,0,0,0-.3.3v3.556a.3.3,0,0,0,.3.3h2.155v11.8a.3.3,0,0,0,.3.3H21.5a.3.3,0,0,0,.3-.3v-11.8h3.125a.3.3,0,0,0,.3-.276l.3-3.555a.306.306,0,0,0-.079-.231.3.3,0,0,0-.223-.1H21.8V13.254a1.072,1.072,0,0,1,1.07-1.071h2.409a.3.3,0,0,0,.3-.3V8.326a.3.3,0,0,0-.3-.3h-4.07a4.329,4.329,0,0,0-4.325,4.325v3.426Z" fill="#45cdfc"/></svg>