<svg xmlns="http://www.w3.org/2000/svg" width="49.45" height="44.395" viewBox="0 0 49.45 44.395"><g transform="translate(0 0)"><path d="M41.7,61.5c0,.18.207.181.244,0a7.146,7.146,0,0,1,1.346-3.088H41.823a.122.122,0,0,0-.122.122Zm10.79-18.523c-.06-.2-.229-.208-.228,0,.017,1.929-.538,3.587-4.059,7.109L45.418,52.86a19.664,19.664,0,0,0-3.081,3.582h2.751l.325-.325,4-4c3.328-3.328,3.792-6.848,3.081-9.144ZM48.756,54.74l-3.338,3.341C43.4,60.1,41.7,61.842,41.7,63.746l0,.53c0,.144.179.167.234.016.624-1.7,2.708-3.524,6.531-2.879,0,0,16.655,2.878,16.8,2.89a.159.159,0,0,0,.138-.271c-.063-.075-7.752-7.763-7.752-7.763l-8.894-1.53ZM36.707,58.408a.122.122,0,0,1-.122-.122V56.563a.122.122,0,0,1,.122-.122h2.915a.121.121,0,0,0,.122-.121c-.008-1.548-1.174-2.6-5.85-1.786L23.8,56.27s-7.689,7.688-7.752,7.763a.158.158,0,0,0,.138.27c.14-.012,16.8-2.89,16.8-2.89,3.823-.645,5.908,1.174,6.531,2.879.055.15.234.128.234-.016V58.529a.121.121,0,0,0-.121-.122H36.707ZM32.054,34.321c-3.328,3.328-3.792,6.848-3.081,9.144.06.2.229.208.228,0-.017-1.929.538-3.587,4.059-7.108l7.591-7.589c2.021-2.021,3.717-3.762,3.717-5.666V20.136c0-.181-.207-.181-.244,0-.5,2.423-1.469,3.379-3.468,5.378l-8.8,8.807Zm12.522-6v-2.99c0-.181-.207-.181-.244,0-.5,2.424-1.466,3.395-3.465,5.394l-7.973,7.966c-3.869,3.869-4.539,7.614-2.571,10.02.131.16.272.064.187-.13-1.3-2.944,1.819-6.065,3.3-7.55l7.045-7.046c2.02-2.02,3.717-3.761,3.717-5.665ZM33.112,43.692c-3.869,3.87-2.09,7.607.167,8.636.2.09.277-.07.125-.2-1.81-1.568-1.26-4.205,1.016-6.481l6.431-6.431c2.02-2.02,3.717-3.761,3.717-5.665V30.579c0-.181-.207-.181-.244,0-.5,2.423-1.467,3.375-3.466,5.374l-7.746,7.738Zm8.583,9.619V56.3c0,.18.207.181.244,0,.5-2.424,1.467-3.394,3.465-5.393l3.167-3.16c3.869-3.869,4.538-7.614,2.571-10.02-.131-.16-.272-.064-.187.129,1.3,2.944-1.818,6.065-3.3,7.551l-2.239,2.239c-2.021,2.021-3.717,3.762-3.717,5.665Zm3.718-7.632c-2,2-2.966,2.951-3.466,5.374-.037.181-.244.18-.244,0V48.083c0-1.9,1.7-3.645,3.717-5.665l1.625-1.625c2.276-2.276,2.826-4.913,1.016-6.481-.151-.131-.072-.292.126-.2,2.257,1.028,4.036,4.766.167,8.635ZM64.175,58.629c.175,0,.28-.1.28-.24,0-.158-.088-.226-.284-.226h-.165v.466Zm-.425-.681h.432c.367,0,.532.145.532.435a.4.4,0,0,1-.263.384l.391.654h-.29l-.338-.584h-.209v.584H63.75V57.948Zm1.507.735a1.033,1.033,0,0,0-1.046-1.059,1.016,1.016,0,0,0-1.049,1.059,1.047,1.047,0,1,0,2.094,0Zm-2.283,0a1.2,1.2,0,0,1,1.238-1.238,1.215,1.215,0,0,1,1.238,1.238,1.238,1.238,0,0,1-2.475,0Z" transform="translate(-16 -20)" fill="#fff" fill-rule="evenodd"/></g></svg>