<svg xmlns="http://www.w3.org/2000/svg" width="40.559" height="40.558" viewBox="0 0 40.559 40.558"><path d="M915.663,202.947a20.279,20.279,0,1,0,20.28,20.28A20.3,20.3,0,0,0,915.663,202.947Zm11.744,12.9a.571.571,0,0,1-.116.377,9.383,9.383,0,0,1-1.882,1.967c-.108.08-.288.165-.288.317,0,3.906-1,7.808-3.845,10.636a14.311,14.311,0,0,1-13.893,3.249,13.281,13.281,0,0,1-2.687-1.075c-.284-.155-.563-.315-.837-.5-.07-.056-.122-.108-.062-.144s.1-.032.32,0a9.483,9.483,0,0,0,4.02-.514c.7-.246,2.211-.739,2.646-1.4.01-.016.021-.016.031-.031-.176-.042-.351-.042-.527-.072a5.188,5.188,0,0,1-3.875-3.245c-.051-.129,0-.2.135-.171a5.566,5.566,0,0,0,1.844-.057,2.888,2.888,0,0,1-.625-.191,5,5,0,0,1-3.08-3.983,3,3,0,0,1-.031-.559c.01-.129.068-.17.181-.1a4.949,4.949,0,0,0,1.881.527c-.212-.165-.408-.346-.6-.527a4.941,4.941,0,0,1-.843-5.839c.094-.14.155-.14.269-.01a15.144,15.144,0,0,0,9.745,4.96c.1.016.113,0,.1-.114a5.234,5.234,0,0,1,.051-2.037,4.969,4.969,0,0,1,.963-1.929,5.163,5.163,0,0,1,1.613-1.317,5.036,5.036,0,0,1,2-.565,4.785,4.785,0,0,1,2.107.34,5.02,5.02,0,0,1,1.374.842,2.3,2.3,0,0,1,.248.253.189.189,0,0,0,.2.052,12.178,12.178,0,0,0,2.836-1.086.134.134,0,0,1,.126-.01c.042.031.026.083.005.124a4.4,4.4,0,0,1-.795,1.448c-.227.282-.794.978-1.179,1.042a9.7,9.7,0,0,0,2.387-.682c.1-.043.088-.062.088,0Z" transform="translate(-895.384 -202.947)" fill="#45cdfc"/></svg>