<svg xmlns="http://www.w3.org/2000/svg" width="98.941" height="98.92" viewBox="0 0 98.941 98.92"><g transform="translate(-222.707 -222.245)"><g transform="translate(224.207 223.753)"><path d="M270.92,223.756c-19.67,0-32.034,3.168-38.846,9.939-7.867,7.819-7.867,19.751-7.867,34.858a53.239,53.239,0,0,0,14.084,35.529c9.231,10.05,21.259,15.584,33.867,15.584s24.636-5.534,33.867-15.584a53.239,53.239,0,0,0,14.084-35.529c0-1.677.014-3.325.027-4.932.107-12.821.191-22.951-6.548-29.788-6.631-6.731-19.8-9.93-41.441-10.072q-.619-.007-1.228-.008Z" transform="translate(-224.207 -223.753)" fill="none" stroke="#fff" stroke-miterlimit="10" stroke-width="3"/></g><path d="M275.9,307.37a28.869,28.869,0,0,1-12.427-2.829,31.95,31.95,0,0,1-5.422-3.272A34.271,34.271,0,0,1,253.328,297a35.918,35.918,0,0,1-6.841-10.851,35.079,35.079,0,0,1-1.859-6.224,33.476,33.476,0,0,1-.649-6.521c0-8.7,0-16.213,3.893-21.5,2.054-2.787,5.078-4.807,9.245-6.173,4.537-1.487,10.426-2.21,18-2.21h.783c7.468.049,13.318.649,17.885,1.839,4.247,1.105,7.375,2.722,9.564,4.947a15.117,15.117,0,0,1,4,8.587,68.951,68.951,0,0,1,.487,11.321c-.008.973-.018,2.07-.018,3.187a33.48,33.48,0,0,1-.649,6.522,35.082,35.082,0,0,1-1.86,6.224A35.931,35.931,0,0,1,298.477,297a34.278,34.278,0,0,1-4.725,4.274,31.969,31.969,0,0,1-5.422,3.272A28.861,28.861,0,0,1,275.9,307.37Zm-6.576-17.259a5.672,5.672,0,0,1,1.148.105,9.076,9.076,0,0,1,3.683,2.226l0,0c.208.175.4.341.6.5.316.255.637.531.942.8a10.658,10.658,0,0,0,3.187,2.161,5.858,5.858,0,0,0,1.993.354,6.015,6.015,0,0,0,2.443-.531A7.044,7.044,0,0,0,285.2,294.5a8.938,8.938,0,0,0,2.309-3.537,8.4,8.4,0,0,0,.262-4.953,12.334,12.334,0,0,0-1.2-2.7c-.226-.415-.46-.845-.662-1.269a38.225,38.225,0,0,1-1.637-4.206c-.212-.651-.4-1.326-.6-2.04a19.136,19.136,0,0,0-1.963-5.11,5.276,5.276,0,0,0-1.724-1.724,4.946,4.946,0,0,0-2.6-.66c-.212,0-.437.011-.664.03a9.049,9.049,0,0,0-3.349,1.169c-.551.284-1.1.616-1.675.97-.537.328-1.092.667-1.675.978-1.11.592-2.3,1.219-3.505,1.791-.716.341-1.444.656-2.149.959a20.049,20.049,0,0,0-4.86,2.621,10.348,10.348,0,0,0-3.277,7.717,5.291,5.291,0,0,0,3.1,4.55,14.3,14.3,0,0,0,6.421,1.229c.3,0,.608-.006.917-.016.392-.014.792-.052,1.18-.088C268.326,290.159,268.829,290.111,269.325,290.111Zm28.118-19.226a4.848,4.848,0,0,0-.65.044,6.24,6.24,0,0,0-3.426,1.714,9.539,9.539,0,0,0-1.964,3,9.8,9.8,0,0,0-.842,4.013,6.74,6.74,0,0,0,1.457,4.142,4.486,4.486,0,0,0,3.481,1.734,5.237,5.237,0,0,0,2.7-.812,9.324,9.324,0,0,0,3.562-4.8,8.11,8.11,0,0,0-.212-6.5A4.736,4.736,0,0,0,297.443,270.885ZM261.606,257.3a4.925,4.925,0,0,0-.708.051,6.407,6.407,0,0,0-3.7,1.978,9.526,9.526,0,0,0-2.136,3.63,8.386,8.386,0,0,0,.9,7.2,4.14,4.14,0,0,0,3.432,1.835,5.551,5.551,0,0,0,2.135-.466,6.322,6.322,0,0,0,1.963-1.341,9.213,9.213,0,0,0,1.568-2.079,9.746,9.746,0,0,0,1.291-5.226,7.005,7.005,0,0,0-1.319-3.838A4.186,4.186,0,0,0,261.606,257.3Zm30.074-3.26h0a5.313,5.313,0,0,0-.58.032A6.289,6.289,0,0,0,287.6,255.7a9.481,9.481,0,0,0-2.147,3.179,9.69,9.69,0,0,0-.736,4.533,6.592,6.592,0,0,0,1.383,3.612,4.289,4.289,0,0,0,3.407,1.629,5.536,5.536,0,0,0,1.053-.106,6.74,6.74,0,0,0,3.985-2.742,9.735,9.735,0,0,0,1.856-4.816,9.031,9.031,0,0,0-.255-3.13,5.956,5.956,0,0,0-1.3-2.459,4.184,4.184,0,0,0-3.164-1.376Zm-15.113-5.508a5.181,5.181,0,0,0-.663.043,6.355,6.355,0,0,0-3.582,1.791,9.445,9.445,0,0,0-1.87,2.872,9.959,9.959,0,0,0-.857,3.983,6.683,6.683,0,0,0,1.448,4.189,4.532,4.532,0,0,0,3.517,1.756,5.162,5.162,0,0,0,2.672-.8,8.384,8.384,0,0,0,2.89-3.088,9.75,9.75,0,0,0,1.238-4.779,7.2,7.2,0,0,0-1.2-4.055A4.248,4.248,0,0,0,276.567,248.527Z" transform="translate(-3.737 -3.736)" fill="none" stroke="#fff" stroke-miterlimit="10" stroke-width="3"/></g></svg>