<svg xmlns="http://www.w3.org/2000/svg" width="141.074" height="98.998" viewBox="0 0 141.074 98.998"><g transform="translate(1.5 1.5)"><g transform="translate(0 0)"><path d="M87.274,77.51c-38.127,0-69.038,21.483-69.038,47.984s30.91,47.982,69.038,47.982" transform="translate(-18.236 -77.51)" fill="none" stroke="#fff" stroke-linecap="round" stroke-linejoin="round" stroke-width="3"/><path d="M212.6,173.477c38.128,0,69.036-21.483,69.036-47.984S250.728,77.512,212.6,77.512" transform="translate(-143.562 -77.511)" fill="none" stroke="#fff" stroke-linecap="round" stroke-linejoin="round" stroke-width="3"/></g><line x2="69.037" transform="translate(0 48.502)" fill="none" stroke="#fff" stroke-linecap="round" stroke-width="3"/><line x2="64.212" transform="translate(4.825 30.326)" fill="none" stroke="#fff" stroke-linecap="round" stroke-width="3"/><line x2="47.799" transform="translate(21.238 13.361)" fill="none" stroke="#fff" stroke-linecap="round" stroke-width="3"/><line x2="62.72" transform="translate(6.318 68.063)" fill="none" stroke="#fff" stroke-linecap="round" stroke-width="3"/><line x2="43.576" transform="translate(25.461 85.201)" fill="none" stroke="#fff" stroke-linecap="round" stroke-width="3"/><g transform="translate(11.912 0.001)"><path d="M120.036,126.014c0-42.412,20.6-48.5,20.6-48.5s-39.641,5.57-39.641,48.5" transform="translate(-83.511 -77.513)" fill="none" stroke="#fff" stroke-linecap="round" stroke-linejoin="round" stroke-width="3"/><path d="M51.773,126.014c0-46.219,57.125-48.5,57.125-48.5v95.964" transform="translate(-51.773 -77.513)" fill="none" stroke="#fff" stroke-linecap="round" stroke-linejoin="round" stroke-width="3"/><path d="M120.036,214.06c0,42.412,20.6,47.463,20.6,47.463s-39.642-4.532-39.642-47.463" transform="translate(-83.511 -165.559)" fill="none" stroke="#fff" stroke-linecap="round" stroke-linejoin="round" stroke-width="3"/><path d="M108.9,261.523s-57.125-1.244-57.125-47.463" transform="translate(-51.773 -165.559)" fill="none" stroke="#fff" stroke-linecap="round" stroke-width="3"/></g><g transform="translate(90.847 27.148)"><path d="M337.056,212.46l-33.739-.527a6.271,6.271,0,0,1-2.232-1.768A6.842,6.842,0,0,1,300.016,207l-.6.6v10.345l.6.6a6.85,6.85,0,0,1,1.069-3.162,6.28,6.28,0,0,1,2.232-1.766l33.717-.549Q337.043,212.77,337.056,212.46Z" transform="translate(-290.385 -188.156)" fill="none" stroke="#fff" stroke-linecap="round" stroke-linejoin="round" stroke-width="3"/><path d="M325.819,159.4l-33.739-.527a6.268,6.268,0,0,1-2.232-1.767,6.839,6.839,0,0,1-1.069-3.162l-.6.6v10.346l.6.6a6.843,6.843,0,0,1,1.069-3.161,6.275,6.275,0,0,1,2.232-1.766l33.717-.549C325.8,159.812,325.811,159.606,325.819,159.4Z" transform="translate(-283.14 -153.942)" fill="none" stroke="#fff" stroke-linecap="round" stroke-linejoin="round" stroke-width="3"/><path d="M311.646,270.066l-33.74-.527a6.268,6.268,0,0,1-2.231-1.768,6.837,6.837,0,0,1-1.069-3.161l-.6.6V275.56l.6.6A6.844,6.844,0,0,1,275.675,273a6.272,6.272,0,0,1,2.231-1.766l33.717-.549Q311.633,270.376,311.646,270.066Z" transform="translate(-274.001 -225.301)" fill="none" stroke="#fff" stroke-linecap="round" stroke-linejoin="round" stroke-width="3"/></g></g></svg>