<svg xmlns="http://www.w3.org/2000/svg" width="96.886" height="106" viewBox="0 0 96.886 106"><g transform="translate(-137.967 -383.167)"><path d="M217.7,466.213a46.67,46.67,0,1,0-34.607,11.661l23.092,9.794,23.883-17.026a27.051,27.051,0,0,1-12.253-4.534c-2.605-1.67-4.775-3.249-8.251-3.774h-.932A33.854,33.854,0,0,0,204,438.188L175.752,451.7c3.82,4.748,7.409,13.38,3.807,22.159,1.726-10.853-8.742-19.832-12.778-20.591l24.264-13.173a6.351,6.351,0,0,1,3.571,2.583" fill="none" stroke="#fff" stroke-linecap="round" stroke-linejoin="round" stroke-miterlimit="10" stroke-width="3"/><path d="M146.854,409.764c22.682-7.916,54.9-13.778,80.992,0" transform="translate(-0.668 -1.642)" fill="none" stroke="#fff" stroke-linecap="round" stroke-miterlimit="10" stroke-width="3"/><path d="M140.011,429.653c23.057-13.014,53.131-21.857,91.988-5.663" transform="translate(0 -2.983)" fill="none" stroke="#fff" stroke-linecap="round" stroke-miterlimit="10" stroke-width="3"/><path d="M231.264,415.228c3.314,9.457,6.294,24.881-9,51.394" transform="translate(-8.029 -2.983)" fill="none" stroke="#fff" stroke-linecap="round" stroke-miterlimit="10" stroke-width="3"/><path d="M195.507,404.095c8.543,9.771,27.978,25.964,21.489,58.35,8.865-39.936,3.446-53.049-15.122-76.64" transform="translate(-5.417 -0.111)" fill="none" stroke="#fff" stroke-linecap="round" stroke-linejoin="round" stroke-miterlimit="10" stroke-width="3"/><line x1="3.307" y2="2.407" transform="translate(159.696 467.012)" fill="none" stroke="#fff" stroke-linecap="round" stroke-miterlimit="10" stroke-width="3"/><path d="M169.284,471.165l-5.425,2.981,17.887,7.4c-4.868-9.438-13.809-11.624-19.333-10.938l10.963-7.217" transform="translate(-2.187 -7.684)" fill="none" stroke="#fff" stroke-linecap="round" stroke-linejoin="round" stroke-miterlimit="10" stroke-width="3"/></g></svg>