<svg xmlns="http://www.w3.org/2000/svg" width="125.957" height="101.304" viewBox="0 0 125.957 101.304"><g transform="translate(-657.834 -297.081)"><circle cx="47.279" cy="47.279" r="47.279" transform="translate(659.334 302.327)" fill="none" stroke="#fff" stroke-linecap="round" stroke-linejoin="round" stroke-miterlimit="10" stroke-width="3"/><line y1="28.277" x2="70.062" transform="translate(663.741 301.375)" fill="none" stroke="#fff" stroke-linecap="round" stroke-miterlimit="10" stroke-width="3"/><line x1="48.056" y2="20.139" transform="translate(707.271 299.044)" fill="none" stroke="#fff" stroke-linecap="round" stroke-miterlimit="10" stroke-width="3"/><path d="M660.952,340.254l41.328-17.183,12.362,29.778-7.871,3.428,5.1,12.364" transform="translate(-0.158 -2.35)" fill="none" stroke="#fff" stroke-linecap="round" stroke-linejoin="round" stroke-miterlimit="10" stroke-width="3"/><path d="M741.675,368.21l-5.6-13.768,7.52-3.168L730.1,318.654" transform="translate(-6.921 -1.918)" fill="none" stroke="#fff" stroke-linecap="round" stroke-linejoin="round" stroke-miterlimit="10" stroke-width="3"/><path d="M739.644,324.847a30.208,30.208,0,0,0,8.34-6.718" transform="translate(-7.854 -1.866)" fill="none" stroke="#fff" stroke-linecap="round" stroke-miterlimit="10" stroke-width="3"/><line x1="12.182" transform="translate(741.707 349.207)" fill="none" stroke="#fff" stroke-linecap="round" stroke-miterlimit="10" stroke-width="3"/><line x1="119.73" transform="translate(662.561 366.292)" fill="none" stroke="#fff" stroke-linecap="round" stroke-miterlimit="10" stroke-width="3"/><line x1="50.054" transform="translate(712.33 382.284)" fill="none" stroke="#fff" stroke-linecap="round" stroke-miterlimit="10" stroke-width="3"/><line x1="28.075" transform="translate(672.448 382.284)" fill="none" stroke="#fff" stroke-linecap="round" stroke-miterlimit="10" stroke-width="3"/><path d="M695.7,391.306c2.93,7.251,10.116,14.6,14.47,14.6s12.745-10.975,14.236-14.6" transform="translate(-3.556 -9.023)" fill="none" stroke="#fff" stroke-linecap="round" stroke-linejoin="round" stroke-miterlimit="10" stroke-width="3"/><line x2="8.425" transform="translate(702.21 382.284)" fill="none" stroke="#fff" stroke-linecap="round" stroke-miterlimit="10" stroke-width="3"/><line y2="18.761" transform="translate(706.423 378.124)" fill="none" stroke="#fff" stroke-linecap="round" stroke-miterlimit="10" stroke-width="3"/><path d="M708.132,342.916c-4.554-.008-6.677.511-10.849,4.516" transform="translate(-3.711 -4.29)" fill="none" stroke="#fff" stroke-linecap="round" stroke-miterlimit="10" stroke-width="3"/><circle cx="1.734" cy="1.734" r="1.734" transform="translate(698.952 341.408)" fill="none" stroke="#fff" stroke-linecap="round" stroke-linejoin="round" stroke-miterlimit="10" stroke-width="3"/><path d="M733.55,339.453c-4.554-.008-6.677.51-10.849,4.516" transform="translate(-6.197 -3.952)" fill="none" stroke="#fff" stroke-linecap="round" stroke-miterlimit="10" stroke-width="3"/><circle cx="1.734" cy="1.734" r="1.734" transform="translate(721.885 338.283)" fill="none" stroke="#fff" stroke-linecap="round" stroke-linejoin="round" stroke-miterlimit="10" stroke-width="3"/><path d="M692.226,340.235c-2.7,3.312-4.527,7.682-2.63,16.081a23.541,23.541,0,0,1-1.526,14" transform="translate(-2.81 -4.028)" fill="none" stroke="#fff" stroke-linecap="round" stroke-linejoin="round" stroke-miterlimit="10" stroke-width="3"/><path d="M683.627,344.13c-1.287,2.93-1.739,6.8-.436,12.567a23.55,23.55,0,0,1-1.526,14" transform="translate(-2.184 -4.409)" fill="none" stroke="#fff" stroke-linecap="round" stroke-linejoin="round" stroke-miterlimit="10" stroke-width="3"/><path d="M676.373,347.224A23.154,23.154,0,0,0,676.82,357a18.361,18.361,0,0,1-2.426,14" transform="translate(-1.473 -4.712)" fill="none" stroke="#fff" stroke-linecap="round" stroke-linejoin="round" stroke-miterlimit="10" stroke-width="3"/><path d="M669.986,349.637c-.519,2.527-.289,4.924.708,9.013,1.369,5.618-2.422,10.393-4.2,12.59" transform="translate(-0.7 -4.948)" fill="none" stroke="#fff" stroke-linecap="round" stroke-linejoin="round" stroke-miterlimit="10" stroke-width="3"/><path d="M663.629,352.384c-1.23,6.312,4.6,9.962-2.349,15.245" transform="translate(-0.19 -5.216)" fill="none" stroke="#fff" stroke-linecap="round" stroke-miterlimit="10" stroke-width="3"/><path d="M695.666,315.739c3.559-5.938,10.694-13.056,14.5-13.056,2.957,0,6.65,4.3,6.65,4.3" transform="translate(-3.553 -0.356)" fill="none" stroke="#fff" stroke-linecap="round" stroke-linejoin="round" stroke-miterlimit="10" stroke-width="3"/><line x2="5.187" y2="4.314" transform="translate(672.63 316.736)" fill="none" stroke="#fff" stroke-linecap="round" stroke-miterlimit="10" stroke-width="3"/><line y2="7.052" transform="translate(706.613 302.327)" fill="none" stroke="#fff" stroke-linecap="round" stroke-miterlimit="10" stroke-width="3"/></g></svg>