<svg xmlns="http://www.w3.org/2000/svg" width="106.096" height="98.913" viewBox="0 0 106.096 98.913"><g transform="translate(-363.949 -229.37)"><path d="M466.614,255.63c-.038-.08-.077-.161-.116-.241l0-.01a27.543,27.543,0,0,0-4.119-5.987c-9.5-10.893-23.661-17.286-42.693-18.522h-5.367c-18.912,1.178-33.15,7.647-42.653,18.481l-.352.406q-.492.567-.967,1.163l-.038.049c-.13.162-.259.326-.385.492q-.23.3-.451.607l-.069.1q-.223.313-.434.625l-.078.12q-.192.291-.376.587c-.041.065-.078.129-.121.194s-.095.162-.142.243c-.259.436-.508.881-.741,1.343a22.145,22.145,0,0,0-2.058,8.111v2.986a45.37,45.37,0,0,0,4.405,15.849c.748,1.623,1.55,3.193,2.374,4.733q1.523,2.838,3.218,5.524a130.05,130.05,0,0,0,7.879,11.179,158.872,158.872,0,0,0,12.832,14.769c4.64,4.64,10.911,7.645,19.248,8.353h3.107A31.248,31.248,0,0,0,429.525,324a26.346,26.346,0,0,0,8.272-5.528A157.238,157.238,0,0,0,450.628,303.7a122.012,122.012,0,0,0,11.057-16.544c3.259-5.992,6.124-12.486,6.86-20.782v-2.983A20.018,20.018,0,0,0,466.614,255.63ZM416.9,307.724h-1.015a47.328,47.328,0,0,1-14.444-2.367c-1.054-.376-2.038-.762-3.038-1.158a35.9,35.9,0,0,1-16.227-13.064,25.712,25.712,0,0,1-4.252-12.458v-1.983l.069-1.86a26.479,26.479,0,0,1,7.781-16.643c7.668-7.713,17.276-11.664,29.374-12.078h2.474c9.722.317,18.125,3.071,24.988,8.185,7.534,5.614,11.425,12.242,12.247,20.854v3.524a27.3,27.3,0,0,1-8,17.124,32.688,32.688,0,0,1-6.975,5.589,37.372,37.372,0,0,1-5.541,2.851,47.393,47.393,0,0,1-17.44,3.483Z" fill="none" stroke="#fff" stroke-linecap="round" stroke-miterlimit="10" stroke-width="3" fill-rule="evenodd"/><path d="M455.937,287.971c-.037.076-6.087-.8-6.123-.717a38.758,38.758,0,0,1-2.558-3.2c.4-.018,1.072.013,1.593,0-.579-.854-1.617-1.584-2.292-2.472a6.576,6.576,0,0,1,1.593,0,3.79,3.79,0,0,0-.855-.942c-.95-.959-1.88-1.956-2.836-2.864,0-.024-.006-.046-.039-.04-1.224,1.291-2.511,2.512-3.73,3.805a14.432,14.432,0,0,1,1.632.04c-.709.892-1.622,1.58-2.331,2.472a11.831,11.831,0,0,1,1.632.039c-.747.841-1.616,1.559-2.331,2.43a14.1,14.1,0,0,1,1.67.04c-.244.27-.5.532-.757.786-1.9-1.378-3.523-2.407-4.051-2.344q-.655.079-1.279.178a10.178,10.178,0,0,0-2.407-.388c-2.256-.021-4.867.654-7.2.438-1.593-.147-1.989-.8-3.22-1.671a22.294,22.294,0,0,0-2.084-1.211V272.094c1.372-.138,2.671.031,4.235-.076v-1.8c-1.321-.118-2.914.039-4.235-.076-.025-1.191.051-2.484-.039-3.609a18.9,18.9,0,0,0-2.021-.04v3.689h-4.118V272.1c1.36.027,2.823-.052,4.118.039.008,1.554,0,7.348,0,8.914a4.15,4.15,0,0,0-.733-.31,13.085,13.085,0,0,0-4.455-.3c-2.4.12-4.618,1.3-6.794,2.262a13.075,13.075,0,0,0-2.839,1.3,32.566,32.566,0,0,0-2.125,2.612c-1.341,1.36-2.941,1.321-4.606.824a10.019,10.019,0,0,1-1.25-2.034c.451-.031,1.22.022,1.812,0-.658-1.462-1.84-2.71-2.607-4.228a4.977,4.977,0,0,1,1.812,0,6.261,6.261,0,0,0-.972-1.611c-1.08-1.641-2.139-3.347-3.226-4.9,0-.041-.007-.076-.044-.067-1.391,2.2-2.858,4.3-4.242,6.51a10.981,10.981,0,0,1,1.856.067c-.3.551-3.624,4.228-3.624,4.228,0-.033,2.679-.011,2.646,0,.022.009-3.188,2.565-3.215,2.548-.073.045,2.288-.036,2.772,0-.581.873-4.291,4.855-4.885,5.641" transform="translate(-1.734 -6.581)" fill="none" stroke="#fff" stroke-linecap="round" stroke-linejoin="round" stroke-miterlimit="10" stroke-width="3" fill-rule="evenodd"/></g></svg>