<svg xmlns="http://www.w3.org/2000/svg" width="101.759" height="102.657" viewBox="0 0 101.759 102.657"><g transform="translate(-352.966 -379.465)"><path d="M432.84,411.411l.741-.2-.125.757c-.073.438-1.81,10.8-4.611,16.42-5.1,10.238-20.052,19.623-20.683,20.017l-.262.163-.262-.163c-.635-.4-15.583-9.782-20.678-20.014-2.8-5.627-4.544-15.991-4.616-16.428l-.125-.756.74.195c.077.02,7.777,2.02,12.62,1.629,4.772-.385,12.089-2.882,12.162-2.907l.159-.055.16.053c.077.025,7.762,2.578,12.763,2.908,4.617.305,11.943-1.608,12.016-1.629Z" transform="translate(-4.271 -4.48)" fill="none" stroke="#fff" stroke-miterlimit="10" stroke-width="3"/><path d="M354.466,399.439h98.759" transform="translate(0 -2.843)" fill="none" stroke="#fff" stroke-miterlimit="10" stroke-width="3"/><path d="M354.466,380.965v16.479L403.94,479.22l49.285-81.776V380.965Z" transform="translate(0 0)" fill="none" stroke="#fff" stroke-miterlimit="10" stroke-width="3"/><path d="M429.494,416.914a7.464,7.464,0,0,0-1.536.762c-.767.39-8.775,4.711-21.311,11.049q-.718.41-1.37.787l-1.613-2.6.148-.092a.861.861,0,0,0,.349-1.166l0-.005a.873.873,0,0,0-1.2-.215c-.455.285-.911.57-1.377.856a.82.82,0,1,0,.858,1.385l.21-.128,1.6,2.569q-1.295.76-2.288,1.382c-1.089.679-1.86,1.179-2.4,1.6-.248-.389-.494-.778-.743-1.168a.909.909,0,0,0-1.255-.273c-.154.1-.3.187-.447.283a.9.9,0,0,0-.289,1.246l.007.01,2.324,3.631a.912.912,0,0,0,1.256.283c.146-.1.3-.2.446-.294a.9.9,0,0,0,.275-1.251l0,0c-.217-.344-.438-.691-.657-1.031.939-.406,2.079-.784,2.763-1.081.719-.312.5-.2,1.77-.767.235-.107.44-.2.647-.3l1.24,2-.206.129a.82.82,0,1,0,.7,1.483.806.806,0,0,0,.158-.1l1.367-.855a.859.859,0,0,0,.351-1.163l-.005-.008a.868.868,0,0,0-1.2-.214l-.149.093-1.167-1.888c.844-.425,2.13-1.1,4.651-2.457,4.8-2.572,16.915-9.661,17.772-10.225a9.69,9.69,0,0,0,1.717-1.367,2.235,2.235,0,0,0,.613-1.318A9.708,9.708,0,0,0,429.494,416.914Z" transform="translate(-6.498 -5.469)" fill="#fff" fill-rule="evenodd"/></g></svg>