<svg xmlns="http://www.w3.org/2000/svg" width="42" height="41.999" viewBox="0 0 42 41.999"><path d="M-6354,44a20.871,20.871,0,0,1-8.175-1.65,20.927,20.927,0,0,1-6.675-4.5,20.93,20.93,0,0,1-4.5-6.675A20.873,20.873,0,0,1-6375,23a20.875,20.875,0,0,1,1.65-8.174,20.933,20.933,0,0,1,4.5-6.675,20.927,20.927,0,0,1,6.675-4.5A20.868,20.868,0,0,1-6354,2a20.867,20.867,0,0,1,8.174,1.65,20.929,20.929,0,0,1,6.675,4.5,20.933,20.933,0,0,1,4.5,6.675A20.875,20.875,0,0,1-6333,23a20.874,20.874,0,0,1-1.65,8.174,20.931,20.931,0,0,1-4.5,6.675,20.929,20.929,0,0,1-6.675,4.5A20.866,20.866,0,0,1-6354,44Zm-5.681-30.448a6.25,6.25,0,0,0-6.243,6.243,6.2,6.2,0,0,0,.354,2.072,6.207,6.207,0,0,0,1.159,2,6.408,6.408,0,0,0,.7.693l9.521,9.459a.3.3,0,0,0,.212.088.306.306,0,0,0,.214-.088l9.875-9.812a6.313,6.313,0,0,0,1.456-2.291,6.217,6.217,0,0,0,.37-2.117,6.25,6.25,0,0,0-6.243-6.243,6.262,6.262,0,0,0-5.687,3.67A6.257,6.257,0,0,0-6359.681,13.551Z" transform="translate(6375 -2)" fill="#fff"/></svg>